<?xml version="1.0" encoding="UTF-8"?>
<svg version="1.1" xmlns="http://www.w3.org/2000/svg" xmlns:xlink="http://www.w3.org/1999/xlink">
<defs>

</defs>
<symbol id="i-arrow-left" xmlns="http://www.w3.org/2000/svg" fill="none" stroke="currentColor" stroke-width="2" stroke-linecap="round" stroke-linejoin="round" viewBox="0 0 24 24"><path d="M19 12H5m7 7l-7-7 7-7"/></symbol>
<symbol id="i-code" xmlns="http://www.w3.org/2000/svg" fill="none" stroke="currentColor" stroke-width="2" stroke-linecap="round" stroke-linejoin="round" viewBox="0 0 24 24"><path d="M16 18l6-6-6-6M8 6l-6 6 6 6"/></symbol>
<symbol id="i-codepen" xmlns="http://www.w3.org/2000/svg" fill="none" stroke="currentColor" stroke-width="2" stroke-linecap="round" stroke-linejoin="round" viewBox="0 0 24 24"><path d="M12 2l10 6.5v7L12 22 2 15.5v-7L12 2zm0 20v-6.5"/><path d="M22 8.5l-10 7-10-7"/><path d="M2 15.5l10-7 10 7M12 2v6.5"/></symbol>
<symbol id="i-github" xmlns="http://www.w3.org/2000/svg" fill="none" stroke="currentColor" stroke-width="2" stroke-linecap="round" stroke-linejoin="round" viewBox="0 0 24 24"><path d="M9 19c-5 1.5-5-2.5-7-3m14 6v-3.87a3.37 3.37 0 00-.94-2.61c3.14-.35 6.44-1.54 6.44-7A5.44 5.44 0 0020 4.77 5.07 5.07 0 0019.91 1S18.73.65 16 2.48a13.38 13.38 0 00-7 0C6.27.65 5.09 1 5.09 1A5.07 5.07 0 005 4.77a5.44 5.44 0 00-1.5 3.78c0 5.42 3.3 6.61 6.44 7A3.37 3.37 0 009 18.13V22"/></symbol>
<symbol id="i-linkedin" xmlns="http://www.w3.org/2000/svg" fill="none" stroke="currentColor" stroke-width="2" stroke-linecap="round" stroke-linejoin="round" viewBox="0 0 24 24"><path d="M16 8a6 6 0 016 6v7h-4v-7a2 2 0 00-2-2 2 2 0 00-2 2v7h-4v-7a6 6 0 016-6zM2 9h4v12H2z"/><circle cx="4" cy="4" r="2"/></symbol>
<symbol id="i-logo" version="1.0" xmlns="http://www.w3.org/2000/svg" viewBox="0 0 400 400"><path d="M134 121.2c-.1.2-.2 3-.3 6.3-.3 5.7-1.3 9.1-10.2 33.5-1.3 3.6-6 16.8-10.5 29.5-14.2 40.3-15.7 43.5-23.4 48-8.1 4.7-18.8 4.2-22.3-1.1-1.6-2.5-1.4-10.3.3-16.2l.6-2.2h-23c-26.7 0-23.3-1.5-28.3 12.7-9 25.8-8.9 35.6.6 42.9 6.5 4.9 11.3 5.4 55.9 5.4 45.8 0 52.9-.7 64.6-6.3 8.8-4.2 20.3-15.8 24.8-24.8 1.7-3.7 5.7-13.8 8.8-22.5 3-8.8 6.8-19.5 8.3-23.9 23.5-66.3 26.2-74.2 25.9-77.5l-.3-3.5-35.7-.3c-19.7-.1-35.8-.1-35.8 0zm94.5 7c0 7-1 9.9-23.4 71.3-13.5 36.7-23.6 66-23.9 68.7-.4 4.3-.2 5 2.6 7.6 1.7 1.6 4.6 3.2 6.3 3.6 1.7.3 24.9.6 51.5.6 60.3 0 69.1-1 87.9-10.1 14.9-7.1 29-20.7 38.6-37 4.7-8.1 7.1-13.8 14.5-33.9 9.9-27.1 10.6-30.1 10.8-43 .1-10.1-.2-12.1-2.3-16.7-2.7-6.1-8.8-12.1-16-15.7l-5-2.6H228.5v7.2zm97 28.2c5.8 2.7 7.8 4.7 10 9.9 3 7.1 1.2 19.7-4.8 34.8-4.8 11.7-8.9 18.3-16.3 25.7-11.4 11.4-21.8 15.1-42.7 15.2-6.1 0-8.9-.4-9.2-1.3-.3-.7 6.2-19.9 14.5-42.7 8.3-22.8 15.3-42.1 15.5-42.8.3-.9 4.1-1.2 14.2-1.2 12.4 0 14.3.3 18.8 2.4z"/></symbol>
<symbol id="i-moon" xmlns="http://www.w3.org/2000/svg" fill="none" stroke="currentColor" stroke-width="2" stroke-linecap="round" stroke-linejoin="round" class="feather feather-moon" viewBox="0 0 24 24"><path d="M21 12.79A9 9 0 1111.21 3 7 7 0 0021 12.79z"/></symbol>
<symbol id="i-pin" xmlns="http://www.w3.org/2000/svg" fill="none" stroke="currentColor" stroke-width="2" stroke-linecap="round" stroke-linejoin="round" viewBox="0 0 24 24"><path d="M21 10c0 7-9 13-9 13s-9-6-9-13a9 9 0 0118 0z"/><circle cx="12" cy="10" r="3"/></symbol>
<symbol id="i-sun" xmlns="http://www.w3.org/2000/svg" fill="none" stroke="currentColor" stroke-width="2" stroke-linecap="round" stroke-linejoin="round" class="feather feather-sun" viewBox="0 0 24 24"><circle cx="12" cy="12" r="5"/><path d="M12 1v2m0 18v2M4.22 4.22l1.42 1.42m12.72 12.72l1.42 1.42M1 12h2m18 0h2M4.22 19.78l1.42-1.42M18.36 5.64l1.42-1.42"/></symbol>
<symbol id="i-twitter" xmlns="http://www.w3.org/2000/svg" fill="none" stroke="currentColor" stroke-width="2" stroke-linecap="round" stroke-linejoin="round" viewBox="0 0 24 24"><path d="M23 3a10.9 10.9 0 01-3.14 1.53 4.48 4.48 0 00-7.86 3v1A10.66 10.66 0 013 4s-4 9 5 13a11.64 11.64 0 01-7 2c9 5 20 0 20-11.5a4.5 4.5 0 00-.08-.83A7.72 7.72 0 0023 3z"/></symbol>
</svg>