<?xml version="1.0" encoding="UTF-8"?>
<svg version="1.1" xmlns="http://www.w3.org/2000/svg" xmlns:xlink="http://www.w3.org/1999/xlink">
<defs>

</defs>
<symbol id="i-arrow-left" xmlns="http://www.w3.org/2000/svg" fill="none" stroke="currentColor" stroke-width="2" stroke-linecap="round" stroke-linejoin="round" viewBox="0 0 24 24"><path d="M19 12H5m7 7l-7-7 7-7"/></symbol>
<symbol id="i-briefcase" xmlns="http://www.w3.org/2000/svg" fill="none" stroke="currentColor" stroke-width="2" stroke-linecap="round" stroke-linejoin="round" viewBox="0 0 24 24"><rect x="2" y="7" width="20" height="14" rx="2" ry="2"/><path d="M16 21V5a2 2 0 00-2-2h-4a2 2 0 00-2 2v16"/></symbol>
<symbol id="i-buymeacoffee" fill="none" xmlns="http://www.w3.org/2000/svg" viewBox="0 0 884 1279"><path d="M791.109 297.518l-.878-.516-2.03-.619a4.833 4.833 0 002.908 1.135zm12.787 91.373l-.98.275.98-.275zm-12.412-91.514a1.773 1.773 0 01-.366-.087 1.42 1.42 0 000 .244.738.738 0 00.366-.157z" fill="#0D0C22"/><path d="M791.113 297.529h.131v-.082l-.131.082zm11.998 91.197l1.48-.843.551-.31.499-.533a8.447 8.447 0 00-2.53 1.686zm-9.442-89.211l-1.446-1.377-.98-.533a4.077 4.077 0 002.426 1.91zm-363.65 886.665a7.55 7.55 0 00-2.943 2.27l.912-.58c.62-.57 1.497-1.24 2.031-1.69zm211.168-41.55c0-1.3-.636-1.06-.482 3.58 0-.37.155-.75.224-1.11.086-.83.155-1.64.258-2.47zm-21.903 41.55a7.546 7.546 0 00-2.942 2.27l.912-.58c.619-.57 1.497-1.24 2.03-1.69zm-337.98 9.88a6.299 6.299 0 00-3.097-1.45c.929.45 1.858.9 2.477 1.24l.62.21zm-33.463-32.05a9.895 9.895 0 00-1.222-3.85c.474 1.23.87 2.5 1.187 3.78l.035.07z" fill="#0D0C22"/><path d="M472.623 590.836c-45.941 19.667-98.077 41.966-165.647 41.966a313.577 313.577 0 01-83.623-11.528l46.733 479.806a80.166 80.166 0 0025.593 52.38 80.18 80.18 0 0054.313 21.19s66.262 3.44 88.373 3.44c23.796 0 95.151-3.44 95.151-3.44 20.12 0 39.503-7.57 54.303-21.2a80.149 80.149 0 0025.587-52.37l50.053-530.204c-22.368-7.639-44.943-12.715-70.391-12.715-44.014-.017-79.477 15.142-120.445 32.675z" fill="#FD0"/><path d="M78.689 386.132l.79.74.517.31a7.95 7.95 0 00-1.307-1.05z" fill="#0D0C22"/><path d="M879.567 341.849l-7.037-35.497c-6.315-31.849-20.648-61.943-53.34-73.454-10.479-3.683-22.369-5.265-30.404-12.888-8.035-7.622-10.41-19.46-12.268-30.438-3.442-20.149-6.676-40.315-10.204-60.429-3.045-17.293-5.454-36.719-13.386-52.583-10.324-21.302-31.746-33.76-53.048-42.001a305.493 305.493 0 00-33.363-10.324C613.297 10.195 557.342 5.033 502.591 2.09a1376.266 1376.266 0 00-197.169 3.27c-48.797 4.439-100.193 9.807-146.564 26.687-16.948 6.177-34.413 13.593-47.3 26.687-15.813 16.088-20.975 40.969-9.43 61.031 8.208 14.247 22.111 24.313 36.857 30.972a298.948 298.948 0 0059.844 19.478c57.297 12.664 116.642 17.636 175.178 19.753a1333.99 1333.99 0 00194.433-6.35 1106.995 1106.995 0 0047.817-6.314c18.738-2.874 30.765-27.376 25.242-44.445-6.608-20.406-24.365-28.321-44.444-25.241-2.96.464-5.902.894-8.862 1.324l-2.133.31c-6.803.861-13.605 1.663-20.407 2.409a1083.055 1083.055 0 01-42.259 3.717c-31.626 2.202-63.337 3.217-95.031 3.269-31.144 0-62.305-.878-93.38-2.925a1187.382 1187.382 0 01-42.431-3.545 1019.94 1019.94 0 01-19.219-2.168l-6.092-.774-1.324-.189-6.315-.912c-12.905-1.945-25.81-4.181-38.577-6.883a5.8 5.8 0 010-11.322h.241c11.064-2.357 22.213-4.37 33.397-6.125 3.729-.585 7.468-1.159 11.219-1.72h.103c7.003-.465 14.041-1.722 21.009-2.547A1336.183 1336.183 0 01469.538 73.1c29.577.86 59.138 2.599 88.578 5.593a979.44 979.44 0 0118.927 2.116c2.409.293 4.835.636 7.262.93l4.886.705a678.058 678.058 0 0142.517 7.725c20.889 4.543 47.714 6.022 57.005 28.907 2.96 7.261 4.302 15.331 5.936 22.953l2.082 9.722c.055.174.095.353.121.533 4.921 22.942 9.848 45.884 14.78 68.826a12.608 12.608 0 01-2.006 9.871 12.612 12.612 0 01-8.593 5.254h-.138l-3.011.413-2.976.395c-9.43 1.228-18.87 2.375-28.322 3.442a1829.308 1829.308 0 01-55.938 5.506 1957.204 1957.204 0 01-111.55 6.074c-18.984.504-37.963.74-56.936.705a1975.736 1975.736 0 01-225.989-13.146c-8.122-.963-16.243-1.996-24.365-3.045 6.298.809-4.577-.62-6.779-.929a1447.245 1447.245 0 01-15.486-2.254c-17.327-2.599-34.55-5.799-51.843-8.604-20.906-3.441-40.9-1.72-59.81 8.604a86.994 86.994 0 00-36.012 37.338c-8.156 16.862-10.582 35.221-14.23 53.34C4 342.193-1.678 361.688.473 380.288 5.1 420.431 33.165 453.054 73.53 460.35c37.975 6.882 76.156 12.457 114.44 17.206a2114.804 2114.804 0 00489.988 2.822 25.814 25.814 0 0121.003 7.339 25.806 25.806 0 017.491 20.948l-3.82 37.132-23.091 225.077a178840.62 178840.62 0 01-31.126 302.866c-2.203 21.84-2.512 44.36-6.659 65.94-6.539 33.93-29.509 54.77-63.027 62.39a439.172 439.172 0 01-93.569 10.94c-34.912.19-69.806-1.36-104.718-1.17-37.27.21-82.918-3.23-111.687-30.97-25.277-24.36-28.77-62.51-32.211-95.5-4.588-43.67-9.136-87.331-13.645-130.989l-25.293-242.766-16.363-157.077c-.276-2.598-.551-5.162-.809-7.778-1.962-18.737-15.228-37.079-36.134-36.133-17.894.791-38.232 16.002-36.133 36.133l12.13 116.454 25.087 240.89a378681.11 378681.11 0 0121.388 205.306c1.377 13.11 2.667 26.26 4.112 39.37 7.864 71.65 62.58 110.26 130.339 121.13 39.575 6.37 80.113 7.68 120.273 8.33 51.482.83 103.48 2.81 154.118-6.52 75.038-13.77 131.337-63.87 139.372-141.59 2.295-22.44 4.589-44.88 6.883-67.33 7.628-74.241 15.245-148.487 22.85-222.739l24.881-242.61 11.408-111.188a25.812 25.812 0 0120.785-22.696c21.456-4.181 41.967-11.322 57.229-27.651 24.295-25.998 29.13-59.895 20.544-94.067zM72.43 365.835c.327-.155-.275 2.649-.533 3.957-.052-1.979.051-3.734.533-3.957zm2.082 16.105c.172-.121.688.568 1.222 1.394-.809-.758-1.325-1.325-1.24-1.394h.018zm2.048 2.701c.74 1.256 1.135 2.048 0 0zm4.112 3.338h.103c0 .121.19.241.258.362a2.666 2.666 0 00-.378-.362h.017zm720.124-4.99c-7.708 7.33-19.323 10.737-30.8 12.441-128.704 19.099-259.283 28.769-389.399 24.502-93.121-3.183-185.261-13.525-277.453-26.55-9.034-1.273-18.824-2.925-25.036-9.584-11.7-12.561-5.953-37.854-2.908-53.03 2.788-13.903 8.122-32.434 24.657-34.413 25.81-3.028 55.783 7.863 81.318 11.735a1539.798 1539.798 0 0092.57 11.27c132.18 12.045 266.58 10.169 398.175-7.45a1661.346 1661.346 0 0071.699-11.236c21.216-3.803 44.737-10.943 57.556 11.029 8.792 14.97 9.962 34.998 8.603 51.912a28.942 28.942 0 01-8.999 19.374h.017z" fill="#0D0C22"/></symbol>
<symbol id="i-codepen" xmlns="http://www.w3.org/2000/svg" fill="none" stroke="currentColor" stroke-width="2" stroke-linecap="round" stroke-linejoin="round" viewBox="0 0 24 24"><path d="M12 2l10 6.5v7L12 22 2 15.5v-7L12 2zm0 20v-6.5"/><path d="M22 8.5l-10 7-10-7"/><path d="M2 15.5l10-7 10 7M12 2v6.5"/></symbol>
<symbol id="i-css" xmlns="http://www.w3.org/2000/svg" aria-hidden="true" viewBox="0 0 384 512"><path fill="currentColor" d="M0 32l34.9 395.8L192 480l157.1-52.2L384 32H0zm313.1 80l-4.8 47.3L193 208.6l-.3.1h111.5l-12.8 146.6-98.2 28.7-98.8-29.2-6.4-73.9h48.9l3.2 38.3 52.6 13.3 54.7-15.4 3.7-61.6-166.3-.5v-.1l-.2.1-3.6-46.3L193.1 162l6.5-2.7H76.7L70.9 112h242.2z"/></symbol>
<symbol id="i-cypress" viewBox="0 0 24 24" xmlns="http://www.w3.org/2000/svg"><path d="M11.998 0C5.366 0 0 5.367 0 12a11.992 11.992 0 0012 12c6.633 0 12-5.367 12-12-.001-6.633-5.412-12-12.002-12zM6.37 14.575c.392.523.916.742 1.657.742.35 0 .699-.044 1.004-.175.306-.13.655-.306 1.09-.567l1.223 1.745c-1.003.83-2.138 1.222-3.447 1.222-1.048 0-1.92-.218-2.705-.654a4.393 4.393 0 01-1.746-1.92c-.392-.83-.611-1.79-.611-2.925 0-1.09.219-2.094.61-2.923a4.623 4.623 0 011.748-2.007c.741-.48 1.657-.698 2.661-.698.699 0 1.353.087 1.877.305a5.64 5.64 0 011.614.96l-1.222 1.658A4.786 4.786 0 009.12 8.77c-.305-.13-.698-.174-1.048-.174-1.483 0-2.225 1.134-2.225 3.446-.043 1.18.175 2.008.524 2.532H6.37zm12 2.705c-.436 1.353-1.091 2.357-2.008 3.098-.916.743-2.138 1.135-3.665 1.266l-.305-2.05c1.003-.132 1.745-.35 2.225-.7.174-.13.524-.523.524-.523L11.519 6.764h3.01l2.095 8.683 2.226-8.683h2.923L18.37 17.28z"/></symbol>
<symbol id="i-dev" xmlns="http://www.w3.org/2000/svg" viewBox="0 0 512 512"><path d="M188.437 221.898c-.009-18.484-11.717-46.436-46.525-46.436H95.379v162.505h45.573c36.093.06 47.496-27.934 47.496-46.408l-.011-69.661zm-27.735 69.479c0 5.705-1.907 9.978-5.716 12.826-3.81 2.846-7.632 4.271-11.443 4.271h-17.139V205.87h17.129c3.811 0 7.633 1.424 11.443 4.272 3.801 2.847 5.715 7.13 5.726 12.826v68.409zM287.328 204.485H235v37.734h31.987v29.041H235v37.724h52.339v29.044h-61.071c-10.959.282-20.074-8.379-20.349-19.339V195.813c-.267-10.951 8.406-20.045 19.357-20.319h62.063l-.011 28.991zM389.117 317.717c-12.965 30.201-36.191 24.189-46.594 0l-37.84-142.214h31.988l29.18 111.69 29.043-111.69h31.996l-37.773 142.214z"/><path fill="none" stroke="currentColor" stroke-linecap="round" stroke-linejoin="round" stroke-miterlimit="10" stroke-width="40" d="M424.401 471H87.599C61.863 471 41 450.137 41 424.401V87.599C41 61.863 61.863 41 87.599 41h336.802C450.137 41 471 61.863 471 87.599v336.802C471 450.137 450.137 471 424.401 471z"/></symbol>
<symbol id="i-git" xmlns="http://www.w3.org/2000/svg" aria-hidden="true" viewBox="0 0 448 512"><path fill="currentColor" d="M439.55 236.05L244 40.45a28.87 28.87 0 00-40.81 0l-40.66 40.63 51.52 51.52c27.06-9.14 52.68 16.77 43.39 43.68l49.66 49.66c34.23-11.8 61.18 31 35.47 56.69-26.49 26.49-70.21-2.87-56-37.34L240.22 199v121.85c25.3 12.54 22.26 41.85 9.08 55a34.34 34.34 0 01-48.55 0c-17.57-17.6-11.07-46.91 11.25-56v-123c-20.8-8.51-24.6-30.74-18.64-45L142.57 101 8.45 235.14a28.86 28.86 0 000 40.81l195.61 195.6a28.86 28.86 0 0040.8 0l194.69-194.69a28.86 28.86 0 000-40.81z"/></symbol>
<symbol id="i-github" xmlns="http://www.w3.org/2000/svg" fill="none" stroke="currentColor" stroke-width="2" stroke-linecap="round" stroke-linejoin="round" viewBox="0 0 24 24"><path d="M9 19c-5 1.5-5-2.5-7-3m14 6v-3.87a3.37 3.37 0 00-.94-2.61c3.14-.35 6.44-1.54 6.44-7A5.44 5.44 0 0020 4.77 5.07 5.07 0 0019.91 1S18.73.65 16 2.48a13.38 13.38 0 00-7 0C6.27.65 5.09 1 5.09 1A5.07 5.07 0 005 4.77a5.44 5.44 0 00-1.5 3.78c0 5.42 3.3 6.61 6.44 7A3.37 3.37 0 009 18.13V22"/></symbol>
<symbol id="i-grav" xmlns="http://www.w3.org/2000/svg" aria-hidden="true" viewBox="0 0 512 512"><path fill="currentColor" d="M301.1 212c4.4 4.4 4.4 11.9 0 16.3l-9.7 9.7c-4.4 4.7-11.9 4.7-16.6 0l-10.5-10.5c-4.4-4.7-4.4-11.9 0-16.6l9.7-9.7c4.4-4.4 11.9-4.4 16.6 0l10.5 10.8zm-30.2-19.7c3-3 3-7.8 0-10.5-2.8-3-7.5-3-10.5 0-2.8 2.8-2.8 7.5 0 10.5 3.1 2.8 7.8 2.8 10.5 0zm-26 5.3c-3 2.8-3 7.5 0 10.2 2.8 3 7.5 3 10.5 0 2.8-2.8 2.8-7.5 0-10.2-3-3-7.7-3-10.5 0zm72.5-13.3c-19.9-14.4-33.8-43.2-11.9-68.1 21.6-24.9 40.7-17.2 59.8.8 11.9 11.3 29.3 24.9 17.2 48.2-12.5 23.5-45.1 33.2-65.1 19.1zm47.7-44.5c-8.9-10-23.3 6.9-15.5 16.1 7.4 9 32.1 2.4 15.5-16.1zM504 256c0 137-111 248-248 248S8 393 8 256 119 8 256 8s248 111 248 248zm-66.2 42.6c2.5-16.1-20.2-16.6-25.2-25.7-13.6-24.1-27.7-36.8-54.5-30.4 11.6-8 23.5-6.1 23.5-6.1.3-6.4 0-13-9.4-24.9 3.9-12.5.3-22.4.3-22.4 15.5-8.6 26.8-24.4 29.1-43.2 3.6-31-18.8-59.2-49.8-62.8-22.1-2.5-43.7 7.7-54.3 25.7-23.2 40.1 1.4 70.9 22.4 81.4-14.4-1.4-34.3-11.9-40.1-34.3-6.6-25.7 2.8-49.8 8.9-61.4 0 0-4.4-5.8-8-8.9 0 0-13.8 0-24.6 5.3 11.9-15.2 25.2-14.4 25.2-14.4 0-6.4-.6-14.9-3.6-21.6-5.4-11-23.8-12.9-31.7 2.8.1-.2.3-.4.4-.5-5 11.9-1.1 55.9 16.9 87.2-2.5 1.4-9.1 6.1-13 10-21.6 9.7-56.2 60.3-56.2 60.3-28.2 10.8-77.2 50.9-70.6 79.7.3 3 1.4 5.5 3 7.5-2.8 2.2-5.5 5-8.3 8.3-11.9 13.8-5.3 35.2 17.7 24.4 15.8-7.2 29.6-20.2 36.3-30.4 0 0-5.5-5-16.3-4.4 27.7-6.6 34.3-9.4 46.2-9.1 8 3.9 8-34.3 8-34.3 0-14.7-2.2-31-11.1-41.5 12.5 12.2 29.1 32.7 28 60.6-.8 18.3-15.2 23-15.2 23-9.1 16.6-43.2 65.9-30.4 106 0 0-9.7-14.9-10.2-22.1-17.4 19.4-46.5 52.3-24.6 64.5 26.6 14.7 108.8-88.6 126.2-142.3 34.6-20.8 55.4-47.3 63.9-65 22 43.5 95.3 94.5 101.1 59z"/></symbol>
<symbol id="i-gumroad" xmlns="http://www.w3.org/2000/svg" aria-hidden="true" viewBox="0 0 24 24"><path d="M15.826 15.069a1.018 1.018 0 11-.001 2.036 1.018 1.018 0 010-2.036zM21.327 1.11a1.018 1.018 0 11.001 2.036 1.018 1.018 0 010-2.036zM3.322 3.107h16.116a2.13 2.13 0 001.89 1.151 2.132 2.132 0 002.129-2.13A2.131 2.131 0 0021.327 0c-.89 0-1.654.55-1.97 1.329H3.321C1.764 1.329.543 2.51.543 4.019v17.156C.543 22.706 1.816 24 3.322 24h17.155c1.51 0 2.738-1.267 2.738-2.825V10.998c0-1.532-1.228-2.78-2.738-2.78H10.3c-1.553 0-2.866 1.274-2.866 2.78v3.198c0 1.484 1.286 2.691 2.866 2.691h3.554a2.132 2.132 0 001.972 1.329c1.174 0 2.129-.956 2.129-2.13s-.955-2.129-2.13-2.129a2.13 2.13 0 00-1.889 1.152H10.3c-.523 0-1.088-.349-1.088-.913v-3.198c0-.524.519-1 1.088-1h10.177c.538 0 .96.439.96 1v10.177c0 .567-.44 1.047-.96 1.047H3.322c-.533 0-1-.49-1-1.047V4.02c0-.52.43-.912 1-.912"/></symbol>
<symbol id="i-heroku" xmlns="http://www.w3.org/2000/svg" viewBox="0 0 24 24"><path d="M20.61 0H3.39a2.15 2.15 0 00-2.16 2.16v19.681A2.15 2.15 0 003.39 24h17.22a2.15 2.15 0 002.159-2.159V2.16A2.149 2.149 0 0020.61 0zm.96 21.841c0 .539-.421.96-.96.96H3.39a.948.948 0 01-.96-.96V2.16c0-.54.42-.961.96-.961h17.22a.95.95 0 01.96.961v19.681zM6.63 20.399L9.33 18l-2.7-2.4v4.799zm9.72-9.719c-.479-.48-1.379-1.08-2.879-1.08-1.621 0-3.301.421-4.5.84V3.6h-2.4v10.38l1.68-.78s2.76-1.26 5.16-1.26c1.2 0 1.5.66 1.5 1.26v7.2h2.4v-7.2c.059-.179.059-1.501-.961-2.52zM13.17 7.5h2.4c1.08-1.26 1.62-2.521 1.8-3.9h-2.399c-.241 1.379-.841 2.64-1.801 3.9z"/></symbol>
<symbol id="i-html" xmlns="http://www.w3.org/2000/svg" aria-hidden="true" viewBox="0 0 384 512"><path fill="currentColor" d="M0 32l34.9 395.8L191.5 480l157.6-52.2L384 32H0zm308.2 127.9H124.4l4.1 49.4h175.6l-13.6 148.4-97.9 27v.3h-1.1l-98.7-27.3-6-75.8h47.7L138 320l53.5 14.5 53.7-14.5 6-62.2H84.3L71.5 112.2h241.1l-4.4 47.7z"/></symbol>
<symbol id="i-jquery" xmlns="http://www.w3.org/2000/svg" viewBox="0 0 24 24"><path d="M1.534 5.874c-2.123 3.05-1.86 7.017-.237 10.256.037.079.078.154.118.229.023.052.049.1.077.149.013.028.031.057.047.083.026.052.054.102.081.152l.157.265c.029.049.057.097.09.146.055.094.12.187.177.281.026.039.05.078.079.117a6.36 6.36 0 00.31.444c.078.107.156.211.24.315.027.038.057.076.085.114l.221.269c.027.031.054.067.083.099.098.118.202.233.306.349 0 .002.003.004.005.007a3.13 3.13 0 00.424.44c.08.082.16.164.245.244l.101.097c.111.104.222.208.339.308.002 0 .003.002.005.003l.057.05c.102.089.205.178.31.26l.125.105c.085.068.173.133.26.2l.136.104c.093.07.192.139.287.207.035.025.07.05.106.073l.029.023.281.185.12.08c.147.094.293.183.438.271.042.021.084.044.123.068.108.062.22.125.329.183.06.034.122.063.184.094.075.042.153.083.233.125a.324.324 0 01.056.023c.033.015.064.031.096.047.12.06.245.117.375.174.024.01.05.02.076.034.144.063.288.123.437.182.034.01.07.027.105.04.135.051.274.103.411.152l.05.018c.153.052.304.102.459.15.036.01.073.023.111.033.159.048.313.105.473.136 10.26 1.87 13.242-6.169 13.242-6.169-2.505 3.262-6.95 4.122-11.16 3.165-.156-.036-.312-.086-.469-.132a13.522 13.522 0 01-.567-.181l-.062-.024c-.136-.046-.267-.097-.4-.148a1.613 1.613 0 00-.11-.041c-.147-.059-.29-.12-.432-.183-.031-.01-.057-.024-.088-.036a23.41 23.41 0 01-.361-.17 1.483 1.483 0 01-.106-.052c-.094-.044-.188-.094-.28-.142a3.942 3.942 0 01-.187-.096c-.113-.06-.226-.125-.339-.187-.034-.024-.073-.044-.112-.066a15.902 15.902 0 01-.438-.269 2.104 2.104 0 01-.118-.079 6.002 6.002 0 01-.312-.206c-.035-.023-.067-.048-.103-.073a9.541 9.541 0 01-.294-.212c-.042-.034-.087-.066-.132-.1-.088-.069-.177-.135-.265-.208l-.118-.094a10.58 10.58 0 01-.334-.281.258.258 0 00-.037-.03l-.347-.316-.1-.094c-.082-.083-.166-.163-.25-.245l-.097-.1a9.07 9.07 0 01-.309-.323l-.015-.016a17.944 17.944 0 01-.313-.354c-.027-.031-.052-.064-.08-.097l-.226-.277a21.248 21.248 0 01-.34-.448C2.16 11.786 1.315 7.386 3.184 3.777m4.937-.472c-1.539 2.209-1.452 5.163-.254 7.499a9.1 9.1 0 00.677 1.132c.23.33.484.72.792.986.107.122.223.24.344.359l.09.09c.114.11.231.218.35.325l.015.013a9.855 9.855 0 00.414.342c.034.023.063.05.096.073.14.108.281.212.427.315l.015.009c.062.045.128.086.198.13.028.018.06.042.09.06.106.068.21.132.317.197.017.007.032.016.048.023.09.055.188.108.282.157.033.02.065.035.099.054.067.033.133.068.197.102l.032.014c.135.066.273.128.408.19.034.013.063.024.092.038.111.048.224.094.335.137.05.017.097.037.144.052.102.038.209.073.31.108l.14.045c.146.045.294.104.448.129 7.92 1.313 9.754-4.787 9.754-4.787-1.651 2.376-4.846 3.508-8.251 2.624a8.03 8.03 0 01-.448-.13c-.048-.013-.09-.028-.136-.042-.104-.036-.211-.071-.312-.109l-.144-.054c-.112-.045-.226-.087-.335-.135-.034-.015-.065-.025-.091-.04-.14-.063-.281-.125-.417-.192l-.206-.107-.119-.06a5.67 5.67 0 01-.265-.15.62.62 0 01-.062-.034c-.106-.066-.216-.13-.317-.198-.034-.019-.065-.042-.097-.062l-.208-.136c-.144-.1-.285-.208-.427-.312-.032-.029-.063-.053-.094-.079-1.497-1.177-2.678-2.786-3.238-4.608-.59-1.894-.46-4.018.559-5.742m4.287-.147c-.908 1.332-.995 2.986-.37 4.455.664 1.56 2.022 2.785 3.604 3.365.065.025.128.046.195.07l.088.027c.092.029.185.063.28.084 4.376.844 5.56-2.247 5.879-2.701-1.042 1.496-2.789 1.855-4.932 1.334a4.844 4.844 0 01-.516-.16 6.344 6.344 0 01-.617-.254 6.521 6.521 0 01-1.08-.66c-1.92-1.454-3.109-4.23-1.857-6.491"/></symbol>
<symbol id="i-js" xmlns="http://www.w3.org/2000/svg" aria-hidden="true" viewBox="0 0 448 512"><path fill="currentColor" d="M0 32v448h448V32H0zm243.8 349.4c0 43.6-25.6 63.5-62.9 63.5-33.7 0-53.2-17.4-63.2-38.5l34.3-20.7c6.6 11.7 12.6 21.6 27.1 21.6 13.8 0 22.6-5.4 22.6-26.5V237.7h42.1v143.7zm99.6 63.5c-39.1 0-64.4-18.6-76.7-43l34.3-19.8c9 14.7 20.8 25.6 41.5 25.6 17.4 0 28.6-8.7 28.6-20.8 0-14.4-11.4-19.5-30.7-28l-10.5-4.5c-30.4-12.9-50.5-29.2-50.5-63.5 0-31.6 24.1-55.6 61.6-55.6 26.8 0 46 9.3 59.8 33.7L368 290c-7.2-12.9-15-18-27.1-18-12.3 0-20.1 7.8-20.1 18 0 12.6 7.8 17.7 25.9 25.6l10.5 4.5c35.8 15.3 55.9 31 55.9 66.2 0 37.8-29.8 58.6-69.7 58.6z"/></symbol>
<symbol id="i-linkedin" xmlns="http://www.w3.org/2000/svg" fill="none" stroke="currentColor" stroke-width="2" stroke-linecap="round" stroke-linejoin="round" viewBox="0 0 24 24"><path d="M16 8a6 6 0 016 6v7h-4v-7a2 2 0 00-2-2 2 2 0 00-2 2v7h-4v-7a6 6 0 016-6zM2 9h4v12H2z"/><circle cx="4" cy="4" r="2"/></symbol>
<symbol id="i-logo" version="1.0" xmlns="http://www.w3.org/2000/svg" viewBox="0 0 400 400"><path d="M134 121.2c-.1.2-.2 3-.3 6.3-.3 5.7-1.3 9.1-10.2 33.5-1.3 3.6-6 16.8-10.5 29.5-14.2 40.3-15.7 43.5-23.4 48-8.1 4.7-18.8 4.2-22.3-1.1-1.6-2.5-1.4-10.3.3-16.2l.6-2.2h-23c-26.7 0-23.3-1.5-28.3 12.7-9 25.8-8.9 35.6.6 42.9 6.5 4.9 11.3 5.4 55.9 5.4 45.8 0 52.9-.7 64.6-6.3 8.8-4.2 20.3-15.8 24.8-24.8 1.7-3.7 5.7-13.8 8.8-22.5 3-8.8 6.8-19.5 8.3-23.9 23.5-66.3 26.2-74.2 25.9-77.5l-.3-3.5-35.7-.3c-19.7-.1-35.8-.1-35.8 0zm94.5 7c0 7-1 9.9-23.4 71.3-13.5 36.7-23.6 66-23.9 68.7-.4 4.3-.2 5 2.6 7.6 1.7 1.6 4.6 3.2 6.3 3.6 1.7.3 24.9.6 51.5.6 60.3 0 69.1-1 87.9-10.1 14.9-7.1 29-20.7 38.6-37 4.7-8.1 7.1-13.8 14.5-33.9 9.9-27.1 10.6-30.1 10.8-43 .1-10.1-.2-12.1-2.3-16.7-2.7-6.1-8.8-12.1-16-15.7l-5-2.6H228.5v7.2zm97 28.2c5.8 2.7 7.8 4.7 10 9.9 3 7.1 1.2 19.7-4.8 34.8-4.8 11.7-8.9 18.3-16.3 25.7-11.4 11.4-21.8 15.1-42.7 15.2-6.1 0-8.9-.4-9.2-1.3-.3-.7 6.2-19.9 14.5-42.7 8.3-22.8 15.3-42.1 15.5-42.8.3-.9 4.1-1.2 14.2-1.2 12.4 0 14.3.3 18.8 2.4z"/></symbol>
<symbol id="i-moon" xmlns="http://www.w3.org/2000/svg" fill="none" stroke="currentColor" stroke-width="2" stroke-linecap="round" stroke-linejoin="round" class="feather feather-moon" viewBox="0 0 24 24"><path d="M21 12.79A9 9 0 1111.21 3 7 7 0 0021 12.79z"/></symbol>
<symbol id="i-nuxt" xmlns="http://www.w3.org/2000/svg" viewBox="0 0 24 24"><path d="M19.724 20.272l.023-.045a.74.74 0 00.053-.117l.002-.005a1.16 1.16 0 00.054-.607l.001.007a1.795 1.795 0 00-.235-.623l.005.008-5.317-9.353-.812-1.42-.807 1.42-5.314 9.353a1.85 1.85 0 00-.204.604l-.001.011a1.257 1.257 0 00.08.713l-.003-.008a.809.809 0 00.05.102l-.002-.004c.16.275.5.602 1.25.602h9.898c.157 0 .925-.032 1.28-.637zm-6.227-9.316l4.859 8.548H8.64zm10.249 7.934L16.73 6.53c-.072-.13-.477-.787-1.182-.787-.317 0-.772.135-1.142.785l-.907 1.59.807 1.42 1.25-2.212 6.941 12.18h-2.64a1.187 1.187 0 01-.058.608l.003-.008a.772.772 0 01-.057.126l.002-.004-.023.045c-.355.605-1.122.637-1.272.637h4.129c.152 0 .917-.032 1.272-.637.157-.275.27-.737-.107-1.382zM7.304 20.307a.989.989 0 01-.045-.092l-.002-.006a1.228 1.228 0 01-.084-.712l-.001.007H1.501L9.93 4.672l2.767 4.864.802-1.42-2.412-4.249c-.067-.122-.475-.777-1.177-.777-.317 0-.772.137-1.142.787L.23 18.889c-.072.13-.425.812-.075 1.417.16.275.5.602 1.25.602h7.151c-.745 0-1.09-.322-1.25-.602z"/></symbol>
<symbol id="i-reactjs" xmlns="http://www.w3.org/2000/svg" aria-hidden="true" viewBox="0 0 512 512"><path fill="currentColor" d="M418.2 177.2c-5.4-1.8-10.8-3.5-16.2-5.1.9-3.7 1.7-7.4 2.5-11.1 12.3-59.6 4.2-107.5-23.1-123.3-26.3-15.1-69.2.6-112.6 38.4-4.3 3.7-8.5 7.6-12.5 11.5-2.7-2.6-5.5-5.2-8.3-7.7-45.5-40.4-91.1-57.4-118.4-41.5-26.2 15.2-34 60.3-23 116.7 1.1 5.6 2.3 11.1 3.7 16.7-6.4 1.8-12.7 3.8-18.6 5.9C38.3 196.2 0 225.4 0 255.6c0 31.2 40.8 62.5 96.3 81.5 4.5 1.5 9 3 13.6 4.3-1.5 6-2.8 11.9-4 18-10.5 55.5-2.3 99.5 23.9 114.6 27 15.6 72.4-.4 116.6-39.1 3.5-3.1 7-6.3 10.5-9.7 4.4 4.3 9 8.4 13.6 12.4 42.8 36.8 85.1 51.7 111.2 36.6 27-15.6 35.8-62.9 24.4-120.5-.9-4.4-1.9-8.9-3-13.5 3.2-.9 6.3-1.9 9.4-2.9 57.7-19.1 99.5-50 99.5-81.7 0-30.3-39.4-59.7-93.8-78.4zM282.9 92.3c37.2-32.4 71.9-45.1 87.7-36 16.9 9.7 23.4 48.9 12.8 100.4-.7 3.4-1.4 6.7-2.3 10-22.2-5-44.7-8.6-67.3-10.6-13-18.6-27.2-36.4-42.6-53.1 3.9-3.7 7.7-7.2 11.7-10.7zM167.2 307.5c5.1 8.7 10.3 17.4 15.8 25.9-15.6-1.7-31.1-4.2-46.4-7.5 4.4-14.4 9.9-29.3 16.3-44.5 4.6 8.8 9.3 17.5 14.3 26.1zm-30.3-120.3c14.4-3.2 29.7-5.8 45.6-7.8-5.3 8.3-10.5 16.8-15.4 25.4-4.9 8.5-9.7 17.2-14.2 26-6.3-14.9-11.6-29.5-16-43.6zm27.4 68.9c6.6-13.8 13.8-27.3 21.4-40.6s15.8-26.2 24.4-38.9c15-1.1 30.3-1.7 45.9-1.7s31 .6 45.9 1.7c8.5 12.6 16.6 25.5 24.3 38.7s14.9 26.7 21.7 40.4c-6.7 13.8-13.9 27.4-21.6 40.8-7.6 13.3-15.7 26.2-24.2 39-14.9 1.1-30.4 1.6-46.1 1.6s-30.9-.5-45.6-1.4c-8.7-12.7-16.9-25.7-24.6-39s-14.8-26.8-21.5-40.6zm180.6 51.2c5.1-8.8 9.9-17.7 14.6-26.7 6.4 14.5 12 29.2 16.9 44.3-15.5 3.5-31.2 6.2-47 8 5.4-8.4 10.5-17 15.5-25.6zm14.4-76.5c-4.7-8.8-9.5-17.6-14.5-26.2-4.9-8.5-10-16.9-15.3-25.2 16.1 2 31.5 4.7 45.9 8-4.6 14.8-10 29.2-16.1 43.4zM256.2 118.3c10.5 11.4 20.4 23.4 29.6 35.8-19.8-.9-39.7-.9-59.5 0 9.8-12.9 19.9-24.9 29.9-35.8zM140.2 57c16.8-9.8 54.1 4.2 93.4 39 2.5 2.2 5 4.6 7.6 7-15.5 16.7-29.8 34.5-42.9 53.1-22.6 2-45 5.5-67.2 10.4-1.3-5.1-2.4-10.3-3.5-15.5-9.4-48.4-3.2-84.9 12.6-94zm-24.5 263.6c-4.2-1.2-8.3-2.5-12.4-3.9-21.3-6.7-45.5-17.3-63-31.2-10.1-7-16.9-17.8-18.8-29.9 0-18.3 31.6-41.7 77.2-57.6 5.7-2 11.5-3.8 17.3-5.5 6.8 21.7 15 43 24.5 63.6-9.6 20.9-17.9 42.5-24.8 64.5zm116.6 98c-16.5 15.1-35.6 27.1-56.4 35.3-11.1 5.3-23.9 5.8-35.3 1.3-15.9-9.2-22.5-44.5-13.5-92 1.1-5.6 2.3-11.2 3.7-16.7 22.4 4.8 45 8.1 67.9 9.8 13.2 18.7 27.7 36.6 43.2 53.4-3.2 3.1-6.4 6.1-9.6 8.9zm24.5-24.3c-10.2-11-20.4-23.2-30.3-36.3 9.6.4 19.5.6 29.5.6 10.3 0 20.4-.2 30.4-.7-9.2 12.7-19.1 24.8-29.6 36.4zm130.7 30c-.9 12.2-6.9 23.6-16.5 31.3-15.9 9.2-49.8-2.8-86.4-34.2-4.2-3.6-8.4-7.5-12.7-11.5 15.3-16.9 29.4-34.8 42.2-53.6 22.9-1.9 45.7-5.4 68.2-10.5 1 4.1 1.9 8.2 2.7 12.2 4.9 21.6 5.7 44.1 2.5 66.3zm18.2-107.5c-2.8.9-5.6 1.8-8.5 2.6-7-21.8-15.6-43.1-25.5-63.8 9.6-20.4 17.7-41.4 24.5-62.9 5.2 1.5 10.2 3.1 15 4.7 46.6 16 79.3 39.8 79.3 58 0 19.6-34.9 44.9-84.8 61.4zm-149.7-15c25.3 0 45.8-20.5 45.8-45.8s-20.5-45.8-45.8-45.8c-25.3 0-45.8 20.5-45.8 45.8s20.5 45.8 45.8 45.8z"/></symbol>
<symbol id="i-rss" xmlns="http://www.w3.org/2000/svg" aria-hidden="true" viewBox="0 0 448 512"><path fill="currentColor" d="M128.081 415.959c0 35.369-28.672 64.041-64.041 64.041S0 451.328 0 415.959s28.672-64.041 64.041-64.041 64.04 28.673 64.04 64.041zm175.66 47.25c-8.354-154.6-132.185-278.587-286.95-286.95C7.656 175.765 0 183.105 0 192.253v48.069c0 8.415 6.49 15.472 14.887 16.018 111.832 7.284 201.473 96.702 208.772 208.772.547 8.397 7.604 14.887 16.018 14.887h48.069c9.149.001 16.489-7.655 15.995-16.79zm144.249.288C439.596 229.677 251.465 40.445 16.503 32.01 7.473 31.686 0 38.981 0 48.016v48.068c0 8.625 6.835 15.645 15.453 15.999 191.179 7.839 344.627 161.316 352.465 352.465.353 8.618 7.373 15.453 15.999 15.453h48.068c9.034-.001 16.329-7.474 16.005-16.504z"/></symbol>
<symbol id="i-rwd" xmlns="http://www.w3.org/2000/svg" viewBox="0 0 475.4 475.4"><path d="M442.4 1H115.1c-18.2 0-33 14.8-33 33v35.8h361v291.5c0 .3-.3.6-.6.6H387v32.4h55.5c18.2 0 33-14.8 33-33V34c-.1-18.2-14.9-33-33.1-33zm-123 52.3c-10 0-18.1-8.1-18.1-18.1 0-4.4 1.7-8.2 4.3-11.3 3.3-4 8.1-6.8 13.8-6.8 5.6 0 10.4 2.7 13.8 6.8 2.6 3.1 4.3 7 4.3 11.3 0 10.1-8.1 18.1-18.1 18.1zm48.6 0c-10 0-18.1-8.1-18.1-18.1 0-4.4 1.8-8.2 4.3-11.3 3.3-4 8.1-6.8 13.8-6.8 5.6 0 10.4 2.7 13.8 6.8 2.6 3.1 4.3 7 4.3 11.3 0 10.1-8.1 18.1-18.1 18.1zm48.6 0c-10 0-18.1-8.1-18.1-18.1 0-4.4 1.7-8.2 4.3-11.3 3.3-4 8.1-6.8 13.8-6.8 5.6 0 10.5 2.7 13.8 6.8 2.6 3.1 4.3 7 4.3 11.3 0 10.1-8.1 18.1-18.1 18.1z" class="a"/><path d="M193.8 451.3v-38.5H32.4V147.4c0-7 5.7-12.8 12.8-12.8h188.5c7 0 12.8 5.7 12.8 12.8v59.2h32.4v-59.2c0-24.9-20.3-45.2-45.2-45.2H45.2c-25 .1-45.2 20.3-45.2 45.2V429c0 24.9 20.2 45.2 45.2 45.2h155.3c-3.4-5.4-6.7-12.6-6.7-22.9zm-54.4 11c-5.5 0-10.3-2.6-13.6-6.5-2.7-3.1-4.5-7.1-4.5-11.6 0-10 8.1-18.1 18.1-18.1 10 0 18.1 8.1 18.1 18.1 0 4.5-1.8 8.4-4.5 11.6-3.3 3.9-8.1 6.5-13.6 6.5z" class="a"/><path d="M343.5 226.9H237.2c-12.8 0-23.2 10.4-23.2 23.2v201.3c0 12.8 10.4 23.1 23.2 23.1h106.3c12.8 0 23.2-10.4 23.2-23.1V250.1c-.1-12.8-10.5-23.2-23.2-23.2zm-105.1 24.3h103.9v178.2H238.4V251.2zm40.3 199.5c0-6.4 5.2-11.6 11.6-11.6 6.4 0 11.6 5.2 11.6 11.6 0 6.4-5.2 11.6-11.6 11.6-6.4 0-11.6-5.2-11.6-11.6z" class="a"/></symbol>
<symbol id="i-sass" xmlns="http://www.w3.org/2000/svg" aria-hidden="true" viewBox="0 0 640 512"><path fill="currentColor" d="M301.84 378.92c-.3.6-.6 1.08 0 0zm249.13-87a131.16 131.16 0 00-58 13.5c-5.9-11.9-12-22.3-13-30.1-1.2-9.1-2.5-14.5-1.1-25.3s7.7-26.1 7.6-27.2-1.4-6.6-14.3-6.7-24 2.5-25.29 5.9a122.83 122.83 0 00-5.3 19.1c-2.3 11.7-25.79 53.5-39.09 75.3-4.4-8.5-8.1-16-8.9-22-1.2-9.1-2.5-14.5-1.1-25.3s7.7-26.1 7.6-27.2-1.4-6.6-14.29-6.7-24 2.5-25.3 5.9-2.7 11.4-5.3 19.1-33.89 77.3-42.08 95.4c-4.2 9.2-7.8 16.6-10.4 21.6-.4.8-.7 1.3-.9 1.7.3-.5.5-1 .5-.8-2.2 4.3-3.5 6.7-3.5 6.7v.1c-1.7 3.2-3.6 6.1-4.5 6.1-.6 0-1.9-8.4.3-19.9 4.7-24.2 15.8-61.8 15.7-63.1-.1-.7 2.1-7.2-7.3-10.7-9.1-3.3-12.4 2.2-13.2 2.2s-1.4 2-1.4 2 10.1-42.4-19.39-42.4c-18.4 0-44 20.2-56.58 38.5-7.9 4.3-25 13.6-43 23.5-6.9 3.8-14 7.7-20.7 11.4-.5-.5-.9-1-1.4-1.5-35.79-38.2-101.87-65.2-99.07-116.5 1-18.7 7.5-67.8 127.07-127.4 98-48.8 176.35-35.4 189.84-5.6 19.4 42.5-41.89 121.6-143.66 133-38.79 4.3-59.18-10.7-64.28-16.3-5.3-5.9-6.1-6.2-8.1-5.1-3.3 1.8-1.2 7 0 10.1 3 7.9 15.5 21.9 36.79 28.9 18.7 6.1 64.18 9.5 119.17-11.8 61.78-23.8 109.87-90.1 95.77-145.6C386.52 18.32 293-.18 204.57 31.22c-52.69 18.7-109.67 48.1-150.66 86.4-48.69 45.6-56.48 85.3-53.28 101.9 11.39 58.9 92.57 97.3 125.06 125.7-1.6.9-3.1 1.7-4.5 2.5-16.29 8.1-78.18 40.5-93.67 74.7-17.5 38.8 2.9 66.6 16.29 70.4 41.79 11.6 84.58-9.3 107.57-43.6s20.2-79.1 9.6-99.5c-.1-.3-.3-.5-.4-.8 4.2-2.5 8.5-5 12.8-7.5 8.29-4.9 16.39-9.4 23.49-13.3-4 10.8-6.9 23.8-8.4 42.6-1.8 22 7.3 50.5 19.1 61.7 5.2 4.9 11.49 5 15.39 5 13.8 0 20-11.4 26.89-25 8.5-16.6 16-35.9 16-35.9s-9.4 52.2 16.3 52.2c9.39 0 18.79-12.1 23-18.3v.1s.2-.4.7-1.2c1-1.5 1.5-2.4 1.5-2.4v-.3c3.8-6.5 12.1-21.4 24.59-46 16.2-31.8 31.69-71.5 31.69-71.5a201.24 201.24 0 006.2 25.8c2.8 9.5 8.7 19.9 13.4 30-3.8 5.2-6.1 8.2-6.1 8.2a.31.31 0 00.1.2c-3 4-6.4 8.3-9.9 12.5-12.79 15.2-28 32.6-30 37.6-2.4 5.9-1.8 10.3 2.8 13.7 3.4 2.6 9.4 3 15.69 2.5 11.5-.8 19.6-3.6 23.5-5.4a82.2 82.2 0 0020.19-10.6c12.5-9.2 20.1-22.4 19.4-39.8-.4-9.6-3.5-19.2-7.3-28.2 1.1-1.6 2.3-3.3 3.4-5C434.8 301.72 450.1 270 450.1 270a201.24 201.24 0 006.2 25.8c2.4 8.1 7.09 17 11.39 25.7-18.59 15.1-30.09 32.6-34.09 44.1-7.4 21.3-1.6 30.9 9.3 33.1 4.9 1 11.9-1.3 17.1-3.5a79.46 79.46 0 0021.59-11.1c12.5-9.2 24.59-22.1 23.79-39.6-.3-7.9-2.5-15.8-5.4-23.4 15.7-6.6 36.09-10.2 62.09-7.2 55.68 6.5 66.58 41.3 64.48 55.8s-13.8 22.6-17.7 25-5.1 3.3-4.8 5.1c.5 2.6 2.3 2.5 5.6 1.9 4.6-.8 29.19-11.8 30.29-38.7 1.6-34-31.09-71.4-89-71.1zm-429.18 144.7c-18.39 20.1-44.19 27.7-55.28 21.3C54.61 451 59.31 421.42 82 400c13.8-13 31.59-25 43.39-32.4 2.7-1.6 6.6-4 11.4-6.9.8-.5 1.2-.7 1.2-.7.9-.6 1.9-1.1 2.9-1.7 8.29 30.4.3 57.2-19.1 78.3zm134.36-91.4c-6.4 15.7-19.89 55.7-28.09 53.6-7-1.8-11.3-32.3-1.4-62.3 5-15.1 15.6-33.1 21.9-40.1 10.09-11.3 21.19-14.9 23.79-10.4 3.5 5.9-12.2 49.4-16.2 59.2zm111 53c-2.7 1.4-5.2 2.3-6.4 1.6-.9-.5 1.1-2.4 1.1-2.4s13.9-14.9 19.4-21.7c3.2-4 6.9-8.7 10.89-13.9 0 .5.1 1 .1 1.6-.13 17.9-17.32 30-25.12 34.8zm85.58-19.5c-2-1.4-1.7-6.1 5-20.7 2.6-5.7 8.59-15.3 19-24.5a36.18 36.18 0 011.9 10.8c-.1 22.5-16.2 30.9-25.89 34.4z"/></symbol>
<symbol id="i-send" xmlns="http://www.w3.org/2000/svg" fill="none" stroke="currentColor" stroke-linecap="round" stroke-linejoin="round" stroke-width="2" class="feather feather-send" viewBox="0 0 24 24"><path d="M22 2L11 13M22 2l-7 20-4-9-9-4 20-7z"/></symbol>
<symbol id="i-sun" xmlns="http://www.w3.org/2000/svg" fill="none" stroke="currentColor" stroke-width="2" stroke-linecap="round" stroke-linejoin="round" class="feather feather-sun" viewBox="0 0 24 24"><circle cx="12" cy="12" r="5"/><path d="M12 1v2m0 18v2M4.22 4.22l1.42 1.42m12.72 12.72l1.42 1.42M1 12h2m18 0h2M4.22 19.78l1.42-1.42M18.36 5.64l1.42-1.42"/></symbol>
<symbol id="i-twitter" xmlns="http://www.w3.org/2000/svg" fill="none" stroke="currentColor" stroke-width="2" stroke-linecap="round" stroke-linejoin="round" viewBox="0 0 24 24"><path d="M23 3a10.9 10.9 0 01-3.14 1.53 4.48 4.48 0 00-7.86 3v1A10.66 10.66 0 013 4s-4 9 5 13a11.64 11.64 0 01-7 2c9 5 20 0 20-11.5a4.5 4.5 0 00-.08-.83A7.72 7.72 0 0023 3z"/></symbol>
<symbol id="i-typescript" xmlns="http://www.w3.org/2000/svg" viewBox="0 0 24 24"><path d="M0 12v12h24V0H0zm19.341-.956c.61.152 1.074.423 1.501.865.221.236.549.666.575.77.008.03-1.036.73-1.668 1.123-.023.015-.115-.084-.217-.236-.31-.45-.633-.644-1.128-.678-.728-.05-1.196.331-1.192.967a.88.88 0 00.102.45c.16.331.458.53 1.39.933 1.719.74 2.454 1.227 2.911 1.92.51.773.625 2.008.278 2.926-.38.998-1.325 1.676-2.655 1.9-.411.073-1.386.062-1.828-.018-.964-.172-1.878-.648-2.442-1.273-.221-.243-.652-.88-.625-.925a1.58 1.58 0 01.22-.141c.108-.061.511-.294.892-.515l.69-.4.145.214c.202.308.643.731.91.872.766.404 1.817.347 2.335-.118a.883.883 0 00.313-.72c0-.278-.035-.4-.18-.61-.186-.266-.567-.49-1.649-.96-1.238-.533-1.771-.864-2.259-1.39a3.165 3.165 0 01-.659-1.2c-.091-.339-.114-1.189-.042-1.531.255-1.197 1.158-2.03 2.461-2.278.423-.08 1.406-.05 1.821.053zm-5.634 1.002l.008.983H10.59v8.876H8.38v-8.876H5.258v-.964c0-.534.011-.98.026-.99.012-.016 1.913-.024 4.217-.02l4.195.012z"/></symbol>
<symbol id="i-vuejs" xmlns="http://www.w3.org/2000/svg" aria-hidden="true" viewBox="0 0 448 512"><path fill="currentColor" d="M356.9 64.3H280l-56 88.6-48-88.6H0L224 448 448 64.3h-91.1zm-301.2 32h53.8L224 294.5 338.4 96.3h53.8L224 384.5 55.7 96.3z"/></symbol>
</svg>