<svg xmlns="http://www.w3.org/2000/svg" viewBox="0 0 640 640"><path d="M352 64c0-17.7-14.3-32-32-32s-32 14.3-32 32v64h-96c-53 0-96 43-96 96v224c0 53 43 96 96 96h256c53 0 96-43 96-96V224c0-53-43-96-96-96h-96zM160 432c0-13.3 10.7-24 24-24h32c13.3 0 24 10.7 24 24s-10.7 24-24 24h-32c-13.3 0-24-10.7-24-24m120 0c0-13.3 10.7-24 24-24h32c13.3 0 24 10.7 24 24s-10.7 24-24 24h-32c-13.3 0-24-10.7-24-24m120 0c0-13.3 10.7-24 24-24h32c13.3 0 24 10.7 24 24s-10.7 24-24 24h-32c-13.3 0-24-10.7-24-24M224 240c26.5 0 48 21.5 48 48s-21.5 48-48 48-48-21.5-48-48 21.5-48 48-48m144 48c0-26.5 21.5-48 48-48s48 21.5 48 48-21.5 48-48 48-48-21.5-48-48m-304 0c0-17.7-14.3-32-32-32S0 270.3 0 288v96c0 17.7 14.3 32 32 32s32-14.3 32-32zm544-32c-17.7 0-32 14.3-32 32v96c0 17.7 14.3 32 32 32s32-14.3 32-32v-96c0-17.7-14.3-32-32-32"/></svg>