<svg xmlns="http://www.w3.org/2000/svg" viewBox="0 0 640 640"><path d="M64 320C64 178.6 178.6 64 320 64s256 114.6 256 256-114.6 256-256 256S64 461.4 64 320m288-160c0-17.7-14.3-32-32-32s-32 14.3-32 32 14.3 32 32 32 32-14.3 32-32m-32 320c35.3 0 64-28.7 64-64 0-16.2-6-31.1-16-42.3l69.5-138.9c5.9-11.9 1.1-26.3-10.7-32.2s-26.3-1.1-32.2 10.7l-69.5 138.9c-1.7-.1-3.4-.2-5.1-.2-35.3 0-64 28.7-64 64s28.7 64 64 64m-80-272c0-17.7-14.3-32-32-32s-32 14.3-32 32 14.3 32 32 32 32-14.3 32-32m-80 144c17.7 0 32-14.3 32-32s-14.3-32-32-32-32 14.3-32 32 14.3 32 32 32m352-32c0-17.7-14.3-32-32-32s-32 14.3-32 32 14.3 32 32 32 32-14.3 32-32"/></svg>