<svg xmlns="http://www.w3.org/2000/svg" viewBox="0 0 640 640"><path d="M320 80c57.4 0 104 46.6 104 104s-46.6 104-104 104-104-46.6-104-104S262.6 80 320 80M96 152c39.8 0 72 32.2 72 72s-32.2 72-72 72-72-32.2-72-72 32.2-72 72-72M0 480c0-70.7 57.3-128 128-128 12.8 0 25.2 1.9 36.9 5.4C132 394.2 112 442.8 112 496v16c0 11.4 2.4 22.2 6.7 32H32c-17.7 0-32-14.3-32-32zm521.3 64c4.3-9.8 6.7-20.6 6.7-32v-16c0-53.2-20-101.8-52.9-138.6 11.7-3.5 24.1-5.4 36.9-5.4 70.7 0 128 57.3 128 128v32c0 17.7-14.3 32-32 32zM472 224c0-39.8 32.2-72 72-72s72 32.2 72 72-32.2 72-72 72-72-32.2-72-72M160 496c0-88.4 71.6-160 160-160s160 71.6 160 160v16c0 17.7-14.3 32-32 32H192c-17.7 0-32-14.3-32-32z"/></svg>