<svg version="1" xmlns="http://www.w3.org/2000/svg" width="533.333" height="533.333" viewBox="0 0 400.000000 400.000000"><path d="M233.7 78.6c-.1.1-8.7.4-19.2.8-10.4.3-21 .8-23.5 1.1-2.5.3-6.7.7-9.5 1-18.3 1.8-18.6 1.9-18.1 5.8.3 1.7.7 7.7 1 13.2.4 5.5.9 12.5 1.1 15.5.3 3 .7 9.8 1 15 .9 15.7 1.5 27.2 2 33.5.2 3.3.7 10.7 1 16.5 1.4 26.3 1.8 36.5 3 72.5.4 9.9.8 22 1 27 .2 4.9.7 18.7 1.1 30.5.3 11.8.7 21.6.8 21.7.2.2 2.4.6 9.1 1.7 3.1.5 11.4 1.3 23.1 2.2 17.4 1.2 57.8.6 66.4-1.1 1.4-.3 5.3-1 8.8-1.5 24.6-4 50.4-16.4 66.9-32.2 14.3-13.6 26.9-34.4 30.8-50.8 4.2-17.6 4.9-23.7 4.9-41 0-12-.8-25.2-1.8-28.1-.3-.8-.7-2.8-1-4.4-5.1-34.2-28.5-65.3-61.4-81.9-13.2-6.6-34.9-12.9-51.7-15-8.7-1.1-35.1-2.6-35.8-2zm55.6 109.6c19.2 5.2 29.1 19.1 29.5 41.3.4 30.2-14.5 51.2-40.7 57.1-3.9.9-7.7 1.4-8.4 1.1-.7-.3-1.2-1.8-1.1-3.3.1-1.6.5-19.3.9-39.4.7-34.2 1.2-54.8 1.4-57.8.1-1.9 9.8-1.4 18.4 1zM38.5 88.7c.3 3.2.8 7.4 1 9.3.3 1.9.7 5.5.9 8 .3 2.5.8 7 1.2 10 .3 3 .8 7.4 1 9.8.2 2.5.6 6.1.8 8.1.3 2 .8 6.5 1.1 10.1.3 3.6.8 8.1 1 10 .2 1.9.7 7.5 1.1 12.5.3 4.9.8 10.3.9 12 .3 3.5 1.4 19.7 2 30.5.3 4.1.7 11.1 1 15.5 1 15.4 2.2 40.4 2.9 58.8.2 4.2 0 8-.5 8.2-1.2.8-13.7.7-18.4 0-3.3-.5-14.2-3.3-24.9-6.3-1.7-.5-1.8-.1-1.2 4.2.4 2.6.9 5.6 1.1 6.6.2.9.6 3.5 1 5.6.3 2.2.7 5 1 6.4.7 4.6 2.5 18.5 2.7 21.7.2 3 .5 3.2 5.8 4.2 3 .6 7.3 1.3 9.5 1.6 2.2.4 5.1.8 6.5 1.1 3.6.6 23.7 1.8 29.5 1.7 5.9 0 17.9-1 21.5-1.8 1.4-.3 4-.8 5.9-1.1 10.8-1.8 33.7-11.9 44.5-19.7l5.9-4.2.3-50c.2-45.8.5-59.1 1.9-86.5.3-5.2.7-15.6 1-23 .8-19 2-43.2 3-60.3l.6-8.7H37.9l.6 5.7z"/></svg>