<svg xmlns="http://www.w3.org/2000/svg" xmlns:xlink="http://www.w3.org/1999/xlink">
  <symbol id="icon-code" viewBox="0 0 640 512">
    <path fill="currentColor" d="M278.9 511.5l-61-17.7c-6.4-1.8-10-8.5-8.2-14.9L346.2 8.7c1.8-6.4 8.5-10 14.9-8.2l61 17.7c6.4 1.8 10 8.5 8.2 14.9L293.8 503.3c-1.9 6.4-8.5 10.1-14.9 8.2zm-114-112.2l43.5-46.4c4.6-4.9 4.3-12.7-.8-17.2L117 256l90.6-79.7c5.1-4.5 5.5-12.3.8-17.2l-43.5-46.4c-4.5-4.8-12.1-5.1-17-.5L3.8 247.2c-5.1 4.7-5.1 12.8 0 17.5l144.1 135.1c4.9 4.6 12.5 4.4 17-.5zm327.2.6l144.1-135.1c5.1-4.7 5.1-12.8 0-17.5L492.1 112.1c-4.8-4.5-12.4-4.3-17 .5L431.6 159c-4.6 4.9-4.3 12.7.8 17.2L523 256l-90.6 79.7c-5.1 4.5-5.5 12.3-.8 17.2l43.5 46.4c4.5 4.9 12.1 5.1 17 .6z"/>
  </symbol>
  <symbol id="icon-codepen" viewBox="0 0 512 512">
    <path fill="currentColor" d="M502.285 159.704l-234-156c-7.987-4.915-16.511-4.96-24.571 0l-234 156C3.714 163.703 0 170.847 0 177.989v155.999c0 7.143 3.714 14.286 9.715 18.286l234 156.022c7.987 4.915 16.511 4.96 24.571 0l234-156.022c6-3.999 9.715-11.143 9.715-18.286V177.989c-.001-7.142-3.715-14.286-9.716-18.285zM278 63.131l172.286 114.858-76.857 51.429L278 165.703V63.131zm-44 0v102.572l-95.429 63.715-76.857-51.429L234 63.131zM44 219.132l55.143 36.857L44 292.846v-73.714zm190 229.715L61.714 333.989l76.857-51.429L234 346.275v102.572zm22-140.858l-77.715-52 77.715-52 77.715 52-77.715 52zm22 140.858V346.275l95.429-63.715 76.857 51.429L278 448.847zm190-156.001l-55.143-36.857L468 219.132v73.714z"/>
  </symbol>
  <symbol id="icon-github" viewBox="0 0 496 512">
    <path fill="currentColor" d="M165.9 397.4c0 2-2.3 3.6-5.2 3.6-3.3.3-5.6-1.3-5.6-3.6 0-2 2.3-3.6 5.2-3.6 3-.3 5.6 1.3 5.6 3.6zm-31.1-4.5c-.7 2 1.3 4.3 4.3 4.9 2.6 1 5.6 0 6.2-2s-1.3-4.3-4.3-5.2c-2.6-.7-5.5.3-6.2 2.3zm44.2-1.7c-2.9.7-4.9 2.6-4.6 4.9.3 2 2.9 3.3 5.9 2.6 2.9-.7 4.9-2.6 4.6-4.6-.3-1.9-3-3.2-5.9-2.9zM244.8 8C106.1 8 0 113.3 0 252c0 110.9 69.8 205.8 169.5 239.2 12.8 2.3 17.3-5.6 17.3-12.1 0-6.2-.3-40.4-.3-61.4 0 0-70 15-84.7-29.8 0 0-11.4-29.1-27.8-36.6 0 0-22.9-15.7 1.6-15.4 0 0 24.9 2 38.6 25.8 21.9 38.6 58.6 27.5 72.9 20.9 2.3-16 8.8-27.1 16-33.7-55.9-6.2-112.3-14.3-112.3-110.5 0-27.5 7.6-41.3 23.6-58.9-2.6-6.5-11.1-33.3 2.6-67.9 20.9-6.5 69 27 69 27 20-5.6 41.5-8.5 62.8-8.5s42.8 2.9 62.8 8.5c0 0 48.1-33.6 69-27 13.7 34.7 5.2 61.4 2.6 67.9 16 17.7 25.8 31.5 25.8 58.9 0 96.5-58.9 104.2-114.8 110.5 9.2 7.9 17 22.9 17 46.4 0 33.7-.3 75.4-.3 83.6 0 6.5 4.6 14.4 17.3 12.1C428.2 457.8 496 362.9 496 252 496 113.3 383.5 8 244.8 8zM97.2 352.9c-1.3 1-1 3.3.7 5.2 1.6 1.6 3.9 2.3 5.2 1 1.3-1 1-3.3-.7-5.2-1.6-1.6-3.9-2.3-5.2-1zm-10.8-8.1c-.7 1.3.3 2.9 2.3 3.9 1.6 1 3.6.7 4.3-.7.7-1.3-.3-2.9-2.3-3.9-2-.6-3.6-.3-4.3.7zm32.4 35.6c-1.6 1.3-1 4.3 1.3 6.2 2.3 2.3 5.2 2.6 6.5 1 1.3-1.3.7-4.3-1.3-6.2-2.2-2.3-5.2-2.6-6.5-1zm-11.4-14.7c-1.6 1-1.6 3.6 0 5.9 1.6 2.3 4.3 3.3 5.6 2.3 1.6-1.3 1.6-3.9 0-6.2-1.4-2.3-4-3.3-5.6-2z"/>
  </symbol>
  <symbol id="icon-hamburger" viewBox="0 0 448 512">
    <path fill="currentColor" d="M16 132h416c8.837 0 16-7.163 16-16V76c0-8.837-7.163-16-16-16H16C7.163 60 0 67.163 0 76v40c0 8.837 7.163 16 16 16zm0 160h416c8.837 0 16-7.163 16-16v-40c0-8.837-7.163-16-16-16H16c-8.837 0-16 7.163-16 16v40c0 8.837 7.163 16 16 16zm0 160h416c8.837 0 16-7.163 16-16v-40c0-8.837-7.163-16-16-16H16c-8.837 0-16 7.163-16 16v40c0 8.837 7.163 16 16 16z"/>
  </symbol>
  <symbol id="icon-home" viewBox="0 0 576 512">
    <path fill="currentColor" d="M280.37 148.26L96 300.11V464a16 16 0 0016 16l112.06-.29a16 16 0 0015.92-16V368a16 16 0 0116-16h64a16 16 0 0116 16v95.64a16 16 0 0016 16.05L464 480a16 16 0 0016-16V300L295.67 148.26a12.19 12.19 0 00-15.3 0zM571.6 251.47L488 182.56V44.05a12 12 0 00-12-12h-56a12 12 0 00-12 12v72.61L318.47 43a48 48 0 00-61 0L4.34 251.47a12 12 0 00-1.6 16.9l25.5 31A12 12 0 0045.15 301l235.22-193.74a12.19 12.19 0 0115.3 0L530.9 301a12 12 0 0016.9-1.6l25.5-31a12 12 0 00-1.7-16.93z"/>
  </symbol>
  <symbol id="icon-linkedin" viewBox="0 0 448 512">
    <path fill="currentColor" d="M100.28 448H7.4V148.9h92.88zM53.79 108.1C24.09 108.1 0 83.5 0 53.8a53.79 53.79 0 01107.58 0c0 29.7-24.1 54.3-53.79 54.3zM447.9 448h-92.68V302.4c0-34.7-.7-79.2-48.29-79.2-48.29 0-55.69 37.7-55.69 76.7V448h-92.78V148.9h89.08v40.8h1.3c12.4-23.5 42.69-48.3 87.88-48.3 94 0 111.28 61.9 111.28 142.3V448z"/>
  </symbol>
  <symbol id="icon-twitter" viewBox="0 0 512 512">
    <path fill="currentColor" d="M459.37 151.716c.325 4.548.325 9.097.325 13.645 0 138.72-105.583 298.558-298.558 298.558-59.452 0-114.68-17.219-161.137-47.106 8.447.974 16.568 1.299 25.34 1.299 49.055 0 94.213-16.568 130.274-44.832-46.132-.975-84.792-31.188-98.112-72.772 6.498.974 12.995 1.624 19.818 1.624 9.421 0 18.843-1.3 27.614-3.573-48.081-9.747-84.143-51.98-84.143-102.985v-1.299c13.969 7.797 30.214 12.67 47.431 13.319-28.264-18.843-46.781-51.005-46.781-87.391 0-19.492 5.197-37.36 14.294-52.954 51.655 63.675 129.3 105.258 216.365 109.807-1.624-7.797-2.599-15.918-2.599-24.04 0-57.828 46.782-104.934 104.934-104.934 30.213 0 57.502 12.67 76.67 33.137 23.715-4.548 46.456-13.32 66.599-25.34-7.798 24.366-24.366 44.833-46.132 57.827 21.117-2.273 41.584-8.122 60.426-16.243-14.292 20.791-32.161 39.308-52.628 54.253z"/>
  </symbol>
  <symbol id="icon-user" viewBox="0 0 448 512">
    <path fill="currentColor" d="M224 256c70.7 0 128-57.3 128-128S294.7 0 224 0 96 57.3 96 128s57.3 128 128 128zm89.6 32h-16.7c-22.2 10.2-46.9 16-72.9 16s-50.6-5.8-72.9-16h-16.7C60.2 288 0 348.2 0 422.4V464c0 26.5 21.5 48 48 48h352c26.5 0 48-21.5 48-48v-41.6c0-74.2-60.2-134.4-134.4-134.4z"/>
  </symbol>
  <symbol id="logo-mitrefinch" viewBox="0 0 220 36">
    <path fill="currentColor" d="M0 9.9833c.0822-.4693.3922-.7318.9013-.7318.2774 0 .5078.091.6466.2735.1383.1824.2307.4102.2307.729v3.099c.5542-1.3672 1.4316-2.4154 2.5397-3.099 1.1544-.729 2.4936-1.0482 4.0636-1.0482 3.371 0 5.5411 1.3673 6.5108 4.1473.6003-1.276 1.4776-2.2787 2.7244-3.0534 1.2469-.775 2.678-1.1392 4.2944-1.1392 4.6174 0 6.9264 2.6428 6.9264 7.8839v12.5784a1.1102 1.1102 0 01-.2312.6836c-.1383.182-.3694.2735-.6926.2735-.2767 0-.5078-.0914-.6926-.2735a1.1097 1.1097 0 01-.2307-.6836V17.272c0-2.233-.4155-3.828-1.2005-4.8762-.831-1.0024-2.0778-1.504-3.8788-1.504-2.0318 0-3.6478.6837-4.8482 2.0053-1.2008 1.322-1.801 3.1444-1.801 5.423v11.3026a1.112 1.112 0 01-.2308.6836c-.1388.182-.3695.2735-.6926.2735-.2771 0-.5079-.0914-.6926-.2735a1.11 1.11 0 01-.2311-.6836V17.272c0-2.233-.4155-3.828-1.2005-4.8762-.831-1.0024-2.0778-1.504-3.8785-1.504-2.0318 0-3.694.6837-4.8485 2.0053-1.2009 1.322-1.8011 3.1444-1.8011 5.423v11.3026a1.1097 1.1097 0 01-.2307.6836c-.0464.2278-.2772.3188-.5543.3188-.277 0-.5078-.091-.6926-.2735-.0986-.1296-.1738-.305-.209-.4939V9.9833zM37.057 4.102c-.4154 0-.831-.1371-1.108-.4106-.3235-.2734-.4619-.638-.4619-1.0938 0-.5012.1384-.8657.4619-1.1392.323-.2734.6926-.4102 1.154-.4102.462 0 .8314.1368 1.1545.4102.3235.2735.4619.6833.4619 1.1392 0 .4559-.1384.8204-.4619 1.0938-.4155.2735-.785.4106-1.2004.4106zm0 26.5233c-.277 0-.5078-.091-.6925-.2735-.1384-.1824-.2308-.4102-.2308-.729v-19.414a1.1097 1.1097 0 01.2308-.6837c.1387-.1824.3694-.2735.6926-.2735.277 0 .5078.091.6926.2735.1512.1965.2322.437.2307.6836v19.4142c0 .3191-.092.5465-.2307.729-.1848.1824-.4155.2734-.6926.2734zm16.8543-1.686c.6462.0456.9697.3644.9697.8656 0 .638-.4155.9118-1.2468.8204l-1.1081-.0914c-2.1702-.1364-3.7405-.7747-4.7562-1.9596-1.0157-1.1391-1.524-2.9623-1.524-5.3777V11.211h-3.6017c-.1847 0-.3695-.0914-.5078-.2281-.1384-.1368-.2308-.3192-.2308-.5013 0-.2277.0924-.4102.2308-.5922.1387-.1367.3234-.2278.5078-.2278h3.6018V4.0105c0-.3192.0923-.547.277-.729.1848-.1824.3696-.2738.6463-.2738.2771 0 .4619.0914.6466.2738.1847.182.2771.4102.2771.729V9.707h5.772c.1847 0 .3694.091.5078.2277.1384.1367.2307.3649.2307.5926 0 .1825-.046.3645-.1847.5013a.7683.7683 0 01-.5539.228H48.093v11.9858c0 1.9596.3695 3.3269 1.1541 4.1469.7853.8204 1.9394 1.322 3.5557 1.4587l1.1085.091zM68.4566 9.2514c.3695 0 .6003.0457.6926.1821.1384.1367.1848.3192.1848.5926 0 .5012-.3235.7747-.9237.8657l-1.2929.1368c-2.1241.1824-3.694.957-4.7558 2.3244-1.062 1.3215-1.6163 2.8709-1.6163 4.6027v11.6666c0 .3191-.092.5469-.2307.729-.1384.1824-.3695.2738-.6926.2738-.2772 0-.5079-.0914-.6926-.2738-.1384-.1821-.2308-.4099-.2308-.729V10.254c0-.6383.3231-1.0028.9234-1.0028.277 0 .4618.0914.6466.2734.1843.1825.2767.4102.2767.7294v3.099c1.2468-2.461 3.5097-3.7827 6.742-4.0104l.5999-.0457h.3694v-.0454zm20.1326 17.0897c.1847 0 .3694.0914.5078.2282a.75.75 0 01.2308.5469c0 .273-.0924.5465-.3232.82-.231.2735-.6002.5926-1.1544.9114-2.0782 1.2306-4.2484 1.8228-6.4649 1.8228-3.1399 0-5.6332-.9567-7.4342-2.871-1.801-1.9138-2.724-4.557-2.724-7.8842 0-2.142.4154-4.01 1.2004-5.6508.831-1.6404 1.9394-2.871 3.417-3.7828 1.4776-.9114 3.1863-1.3669 5.0793-1.3669 2.678 0 4.7562.8657 6.2798 2.5518 1.524 1.7318 2.3089 4.0562 2.3089 7.0182 0 .5012-.0924.866-.3231 1.0942-.1848.2277-.5542.3645-1.0621.3645H73.2125c.0463 2.7799.739 4.9672 2.1241 6.4716 1.3856 1.504 3.371 2.2787 5.9107 2.2787 1.3852 0 2.5397-.1825 3.463-.547.9233-.3644 1.8007-.8656 2.678-1.4583.6006-.3648 1.0161-.5473 1.2009-.5473zm-7.665-15.495c-2.2166 0-3.9712.6837-5.3104 2.051-1.3392 1.3673-2.1238 3.2358-2.355 5.6512h14.5454c-.0464-2.4615-.6926-4.3753-1.847-5.6966-1.2005-1.3673-2.8628-2.0056-5.033-2.0056zm28.5364-1.1391c.2311 0 .4159.091.5543.2277.1383.1367.2307.3649.2307.5926v19.1407c0 .3191-.0924.5469-.2307.7293-.1388.182-.3695.2731-.6926.2731-.2775 0-.5079-.091-.6926-.273-.1388-.1825-.2312-.4106-.2312-.7294V11.211H98.0552v18.4113c0 .2738-.0924.5012-.2771.6836-.1848.1825-.3695.2735-.6463.2735-.277 0-.5078-.091-.6926-.2735-.1387-.1824-.231-.4102-.231-.729V11.211h-3.6015c-.1847 0-.3694-.0913-.5078-.228-.1384-.1368-.2311-.3192-.2311-.5013 0-.2277.0923-.4102.231-.5922.1385-.1367.3232-.2278.508-.2278h3.6013V8.3855c0-2.4612.6003-4.3754 1.7547-5.788 1.1545-1.4126 2.9091-2.1877 5.1717-2.3697l1.1084-.091h.3695c.6463 0 .9697.2277.9697.729 0 .2277-.0927.41-.231.5925-.1384.1364-.4156.2278-.831.2731l-1.1545.0914c-1.7547.1367-3.0475.6837-3.9712 1.6404-.9237.9571-1.3852 2.4154-1.3852 4.4207v1.7775h11.4514v.0457zm-.1383-8.7043c.4154 0 .7846.1367 1.108.4102.3235.2735.4619.6833.4619 1.1392 0 .4559-.1384.8203-.4619 1.0938-.3234.2735-.6926.4102-1.108.4102-.4619 0-.8314-.1367-1.1545-.4102-.3235-.2735-.4619-.638-.4619-1.0938 0-.5013.1384-.8657.4619-1.1392.3231-.2735.6926-.4102 1.1545-.4102zm17.3617 8.1577c5.0797 0 7.6193 2.6428 7.6193 7.8839v12.5784c0 .6379-.3234 1.0024-.9237 1.0024-.2767 0-.5078-.091-.6926-.2735-.1383-.1824-.2307-.4102-.2307-.729V17.2269c0-2.1877-.4619-3.7827-1.3392-4.8309-.8774-1.0024-2.355-1.504-4.3404-1.504-2.2165 0-4.0176.6837-5.3568 2.051-1.3388 1.3673-2.0314 3.1447-2.0314 5.4234v11.2565c0 .3191-.0924.5465-.2311.729-.1384.1824-.3695.2734-.6922.2734-.2775 0-.5079-.091-.6926-.2735-.1388-.1824-.2311-.4102-.2311-.729V10.254c0-.638.323-1.0025.9237-1.0025.2767 0 .5075.091.6462.2735.1384.1824.2307.4102.2307.729v3.1448c.6463-1.3673 1.6164-2.4158 2.8632-3.1448 1.3852-.7294 2.8168-1.0935 4.4787-1.0935zm22.9956 21.556c-1.847 0-3.5093-.4562-4.9405-1.3219-1.432-.8657-2.586-2.142-3.3714-3.7827-.7846-1.6404-1.2004-3.5089-1.2004-5.6052 0-2.142.4158-4.0105 1.2004-5.6508.7854-1.6408 1.9394-2.9167 3.3714-3.8281 1.4775-.9118 3.1395-1.3673 4.987-1.3673 1.0616 0 2.1237.1367 3.1398.4098 1.0157.2739 1.893.6837 2.678 1.2763.5539.4102.9234.7747 1.1545 1.0481.2307.2735.3231.547.3231.8657 0 .1825-.0924.3649-.2307.5473-.1388.1364-.3235.2278-.5079.2278-.1387 0-.3235-.0457-.5079-.1824-.1843-.1368-.4154-.2735-.6466-.456-.7846-.5922-1.5699-1.0938-2.3549-1.4583-.785-.3644-1.8007-.5469-2.9551-.5469-2.4013 0-4.2944.8204-5.6336 2.4612-1.3388 1.6403-2.0314 3.8737-2.0314 6.699 0 2.7799.6926 4.9676 2.0314 6.5626 1.3392 1.5494 3.2327 2.3701 5.6336 2.3701 1.2004 0 2.2625-.1824 3.0939-.547.831-.3648 1.662-.866 2.4473-1.4586.5542-.4102.9233-.5923 1.108-.5923.1848 0 .3695.091.5079.2282.1384.1367.2311.3188.2311.5012 0 .273-.0924.5465-.3235.7743-.1847.2281-.6002.5926-1.154 1.0485-.739.5466-1.6627 1.0024-2.7708 1.3216-1.1548.2735-2.2166.4559-3.2787.4559zm21.3798-21.556c2.4932 0 4.4327.6833 5.6795 2.0049 1.2928 1.322 1.939 3.2815 1.939 5.879v12.5784c0 .3191-.0923.5465-.2307.729-.1387.1824-.3695.2734-.6926.2734-.2771 0-.5078-.091-.6926-.2735-.1384-.1824-.2311-.4102-.2311-.729V17.2722c0-2.233-.4615-3.828-1.3388-4.8762-.8774-1.0024-2.3553-1.504-4.3407-1.504-2.2166 0-4.0173.6837-5.3565 2.051-1.3392 1.3673-2.0318 3.1447-2.0318 5.4234v11.2565c0 .3191-.0923.5465-.2307.729-.1388.1824-.3695.2734-.6926.2734-.2775 0-.4619-.091-.6466-.2735-.1848-.1824-.2771-.4102-.2771-.6836V1.0028c0-.3192.0923-.547.231-.7293.1385-.1821.3696-.2735.6927-.2735.2771 0 .5078.0914.6926.2735.1384.1824.2307.4101.2307.7293v12.305c.6466-1.322 1.57-2.3702 2.8632-3.0992 1.2928-.684 2.7704-1.048 4.433-1.048zm41.068-6.8848c3.4626 0 7.0183 3.2358 7.8033 3.9195.0924.091.0924.2281 0 .2734-.6466.456-2.8167 2.0963-4.5714 4.6485.4618 1.2762.9697 2.8256 1.108 4.8305.1388 2.37-.6002 4.512-2.1701 6.1981-1.9858 2.0967-5.264 3.4179-9.143 3.646-3.8324 4.7395-8.4035 9.2969-17.9159 10.1173l-1.2008.091c-.1384 0-.2308-.1367-.1384-.2735l.6002-1.0028c3.0015-4.8762 5.5876-7.7014 8.5427-9.1144 2.7704-1.322 5.5408-1.322 8.727-1.322h.046c3.9713 0 7.3883-1.1391 9.3277-3.19 1.2929-1.3674 1.893-3.053 1.7547-5.013-.1387-2.0963-.739-3.6913-1.2468-5.0586-.4155-1.0482-.785-1.9596-.8314-2.9167-.046-1.0481.2775-2.0505.9701-2.7799.3231-.3188.7846-.5922 1.1541-.7747-.9233-.4098-1.893-.729-2.8164-.729-2.3089 0-3.6481.6384-5.4952 2.5065-.4614.5012-1.108 1.1849-1.8006 2.0053.4158-.091.8773-.1368 1.3852-.1368 3.0475 0 5.5871 2.233 5.7719 5.0587.231 3.3268-2.0778 5.9243-6.834 7.7475-3.8785 1.5036-8.8195 2.3244-12.7903 2.9623l-2.3553.3645c-.1384.0457-.2307-.1367-.1384-.2281l1.1081-1.3216c1.2468-1.4583 3.2323-3.9195 5.3104-6.517 1.0621-1.3216 2.1702-2.7342 3.2783-4.0562.1847-.2273.3231-.4098.5079-.5922 2.1705-2.6889 4.202-5.1043 5.4488-6.3802 2.1241-2.1877 3.8328-2.9624 6.6036-2.9624zm-5.911 7.474c-2.0318 0-3.2783.9572-4.9406 2.8257-1.2005 1.5037-2.4933 3.0987-3.6941 4.6027-1.4776 1.8228-2.8628 3.5546-4.0173 4.9676 7.3879-1.2305 17.2698-3.19 16.8543-8.7956-.1387-2.051-1.9394-3.6003-4.2023-3.6003zm-17.5002 24.4728c7.2035-1.0024 11.082-4.4203 14.3606-8.3397-5.5411.0457-9.1429.3191-14.3606 8.3397zm25.9965-24.8372c.9237-1.1849 1.8474-2.1877 2.9555-3.0538-.4619-.3187-.9697-.5012-1.4316-.5012-.5082 0-.9697.1825-1.2932.5473-.4155.4098-.5998 1.0025-.5538 1.6404.0515.467.16.9259.323 1.3673z"/>
  </symbol>
</svg>
