<svg xmlns="http://www.w3.org/2000/svg" version="1.0" viewBox="0 0 800 800"><path d="M514.5 30.4c-12 3.1-24.8 12.8-29.1 22.1-2.8 5.9-3.2 16.6-1 27.7l1.3 6.8h-32.1c-52.1 0-91.1-1.8-143.1-6.6-44.3-4.1-53.1-3.2-61.8 6.5-6 6.7-7.2 9.7-7.1 18.1.2 10.5 3.1 17.5 10.4 25.3 9.9 10.6 18 13.5 46 16.7 40.4 4.5 96.8 7 158 7h38.6l6.3 47.2c23.2 174.6 31.5 258.1 32.8 329.3.6 35.7-.3 53.5-3.8 72.6-6.5 36.2-22.4 59.1-46.9 67.3-19.6 6.5-51 9.1-79 6.5-66.3-6.1-151.1-43.2-189.1-82.6-9.2-9.5-13.5-16.8-14.4-24.3-.9-6.7 1.4-9.5 12.9-15.8 12.1-6.7 15.4-9.5 17.8-15 2.4-5.3 1.9-9.1-2.2-17.2-5.2-10.3-12.1-14.4-24.5-14.5-8.4 0-15.5 2.1-28.3 8.7-19.4 9.8-38.8 24.9-46.1 35.9-5.7 8.6-7.5 15.2-6.8 25.8.9 16 8.5 30.6 24.6 47.4 49.6 51.8 162.7 103 250.1 113.1 15.5 1.8 46.7 2.1 62.1.6 41.2-4.1 72.1-16.7 95-38.7 22.9-22 36.6-55 42.4-101.8 4.5-35.4 3.1-115.8-3-188.5-6-70.4-26.5-237.1-31.1-253.3-.5-1.5.3-1.7 6.3-1.7 29.7-.1 88.1-7.7 108-14.1 12.6-4.1 27.1-16.7 32.9-28.6 2.6-5.1 2.9-6.9 2.9-15 0-9.3 0-9.3-3.5-12.8-9-9-25.6-10.2-62.5-4.7-32.4 4.9-45.2 6.2-68.1 6.9-20.2.6-21.2.5-21.7-1.3-.3-1-1.8-7.4-3.2-14.2-4.2-19.4-6.9-26.4-13.2-33.3-6.8-7.5-16.5-10.2-26.8-7.5z"/></svg>
