<?xml version="1.0" standalone="no"?>
<!DOCTYPE svg PUBLIC "-//W3C//DTD SVG 20010904//EN"
 "http://www.w3.org/TR/2001/REC-SVG-20010904/DTD/svg10.dtd">
<svg version="1.0" xmlns="http://www.w3.org/2000/svg"
 width="800.000000pt" height="800.000000pt" viewBox="0 0 800.000000 800.000000"
 preserveAspectRatio="xMidYMid meet">
<metadata>
Created by potrace 1.11, written by Peter Selinger 2001-2013
</metadata>
<g transform="translate(0.000000,800.000000) scale(0.100000,-0.100000)"
fill="#000000" stroke="none">
<path d="M5145 7696 c-120 -31 -248 -128 -291 -221 -28 -59 -32 -166 -10 -277
l13 -68 -321 0 c-521 0 -911 18 -1431 66 -443 41 -531 32 -618 -65 -60 -67
-72 -97 -71 -181 2 -105 31 -175 104 -253 99 -106 180 -135 460 -167 404 -45
968 -70 1580 -70 l386 0 63 -472 c232 -1746 315 -2581 328 -3293 6 -357 -3
-535 -38 -726 -65 -362 -224 -591 -469 -673 -196 -65 -510 -91 -790 -65 -663
61 -1511 432 -1891 826 -92 95 -135 168 -144 243 -9 67 14 95 129 158 121 67
154 95 178 150 24 53 19 91 -22 172 -52 103 -121 144 -245 145 -84 0 -155 -21
-283 -87 -194 -98 -388 -249 -461 -359 -57 -86 -75 -152 -68 -258 9 -160 85
-306 246 -474 496 -518 1627 -1030 2501 -1131 155 -18 467 -21 621 -6 412 41
721 167 950 387 229 220 366 550 424 1018 45 354 31 1158 -30 1885 -60 704
-265 2371 -311 2533 -5 15 3 17 63 17 297 1 881 77 1080 141 126 41 271 167
329 286 26 51 29 69 29 150 0 93 0 93 -35 128 -90 90 -256 102 -625 47 -324
-49 -452 -62 -681 -69 -202 -6 -212 -5 -217 13 -3 10 -18 74 -32 142 -42 194
-69 264 -132 333 -68 75 -165 102 -268 75z"/>
</g>
</svg>
