<svg xmlns="http://www.w3.org/2000/svg" xml:space="preserve" viewBox="12.92 35.6 74.16 28.8" fill="currentColor"><path fill-rule="evenodd" d="M73.162 48.08c2.759-.762 4.433-3.886 6.96-4.08.82-1.34 2.297-2.023 4.08-2.399.666.607 1.898 1.682 1.2 2.88.171.143 1.696.286 1.68-.48-1.253 3.019-6.831 4.967-8.159 7.92-3.724 1.923-5.818 4.376-9.601 6.479-1.211-.309-1.476-1.564-1.92-2.639-2.665 1.334-4.687 3.313-7.681 4.319-2.688-1.547-.713-4.595.961-5.76-1.258.183-2.076.804-3.36.96-.735-.785-1.781-1.259-1.681-2.88-5.767 2.553-9.564 7.075-15.36 9.6-3.799-2.878.769-6.914 2.88-8.88-3.094 1.12-5.499 3.566-8.88 6.24-1.622 1.281-4.451 3.854-6.48 3.6-1.096-.137-3.064-2.053-2.88-3.84.143-1.391 2.556-3.379 3.84-4.8 3.832-4.241 9.77-8.095 12.72-12.479-10.187 6.293-18.875 14.084-26.88 22.559-1.212-.824-2.365-1.529-1.2-3.359 1.683-2.645 5.031-4.637 7.68-6.96 7.261-6.368 16.494-15.024 25.44-18.479 4.404 1.557.276 6.055-1.92 8.399-4.649 4.965-11.684 9.628-15.12 14.399 4.984-1.969 9.65-7.714 14.88-11.039 1.63-1.037 4.979-2.747 6-2.64 4.27.446.764 6.352-1.201 7.439 4.207-2.515 8.153-5.287 12.72-7.439.867.652 1.988 1.052 2.16 2.399 3.695-1.392 9.809-9.499 11.76-2.64-.522 1.556-1.699 2.459-2.638 3.6z" clip-rule="evenodd"/></svg>