<svg xmlns="http://www.w3.org/2000/svg" viewBox="0 0 475.4 475.4"><path d="M442.4 1H115.1c-18.2 0-33 14.8-33 33v35.8h361v291.5c0 .3-.3.6-.6.6H387v32.4h55.5c18.2 0 33-14.8 33-33V34c-.1-18.2-14.9-33-33.1-33zm-123 52.3c-10 0-18.1-8.1-18.1-18.1 0-4.4 1.7-8.2 4.3-11.3 3.3-4 8.1-6.8 13.8-6.8 5.6 0 10.4 2.7 13.8 6.8 2.6 3.1 4.3 7 4.3 11.3 0 10.1-8.1 18.1-18.1 18.1zm48.6 0c-10 0-18.1-8.1-18.1-18.1 0-4.4 1.8-8.2 4.3-11.3 3.3-4 8.1-6.8 13.8-6.8 5.6 0 10.4 2.7 13.8 6.8 2.6 3.1 4.3 7 4.3 11.3 0 10.1-8.1 18.1-18.1 18.1zm48.6 0c-10 0-18.1-8.1-18.1-18.1 0-4.4 1.7-8.2 4.3-11.3 3.3-4 8.1-6.8 13.8-6.8 5.6 0 10.5 2.7 13.8 6.8 2.6 3.1 4.3 7 4.3 11.3 0 10.1-8.1 18.1-18.1 18.1z" class="a"/><path d="M193.8 451.3v-38.5H32.4V147.4c0-7 5.7-12.8 12.8-12.8h188.5c7 0 12.8 5.7 12.8 12.8v59.2h32.4v-59.2c0-24.9-20.3-45.2-45.2-45.2H45.2c-25 .1-45.2 20.3-45.2 45.2V429c0 24.9 20.2 45.2 45.2 45.2h155.3c-3.4-5.4-6.7-12.6-6.7-22.9zm-54.4 11c-5.5 0-10.3-2.6-13.6-6.5-2.7-3.1-4.5-7.1-4.5-11.6 0-10 8.1-18.1 18.1-18.1 10 0 18.1 8.1 18.1 18.1 0 4.5-1.8 8.4-4.5 11.6-3.3 3.9-8.1 6.5-13.6 6.5z" class="a"/><path d="M343.5 226.9H237.2c-12.8 0-23.2 10.4-23.2 23.2v201.3c0 12.8 10.4 23.1 23.2 23.1h106.3c12.8 0 23.2-10.4 23.2-23.1V250.1c-.1-12.8-10.5-23.2-23.2-23.2zm-105.1 24.3h103.9v178.2H238.4V251.2zm40.3 199.5c0-6.4 5.2-11.6 11.6-11.6 6.4 0 11.6 5.2 11.6 11.6 0 6.4-5.2 11.6-11.6 11.6-6.4 0-11.6-5.2-11.6-11.6z" class="a"/></svg>