<svg version="1.0" xmlns="http://www.w3.org/2000/svg" viewBox="0 0 400 400"><path d="M134 121.2c-.1.2-.2 3-.3 6.3-.3 5.7-1.3 9.1-10.2 33.5-1.3 3.6-6 16.8-10.5 29.5-14.2 40.3-15.7 43.5-23.4 48-8.1 4.7-18.8 4.2-22.3-1.1-1.6-2.5-1.4-10.3.3-16.2l.6-2.2h-23c-26.7 0-23.3-1.5-28.3 12.7-9 25.8-8.9 35.6.6 42.9 6.5 4.9 11.3 5.4 55.9 5.4 45.8 0 52.9-.7 64.6-6.3 8.8-4.2 20.3-15.8 24.8-24.8 1.7-3.7 5.7-13.8 8.8-22.5 3-8.8 6.8-19.5 8.3-23.9 23.5-66.3 26.2-74.2 25.9-77.5l-.3-3.5-35.7-.3c-19.7-.1-35.8-.1-35.8 0zM228.5 128.2c0 7-1 9.9-23.4 71.3-13.5 36.7-23.6 66-23.9 68.7-.4 4.3-.2 5 2.6 7.6 1.7 1.6 4.6 3.2 6.3 3.6 1.7.3 24.9.6 51.5.6 60.3 0 69.1-1 87.9-10.1 14.9-7.1 29-20.7 38.6-37 4.7-8.1 7.1-13.8 14.5-33.9 9.9-27.1 10.6-30.1 10.8-43 .1-10.1-.2-12.1-2.3-16.7-2.7-6.1-8.8-12.1-16-15.7l-5-2.6H228.5v7.2zm97 28.2c5.8 2.7 7.8 4.7 10 9.9 3 7.1 1.2 19.7-4.8 34.8-4.8 11.7-8.9 18.3-16.3 25.7-11.4 11.4-21.8 15.1-42.7 15.2-6.1 0-8.9-.4-9.2-1.3-.3-.7 6.2-19.9 14.5-42.7 8.3-22.8 15.3-42.1 15.5-42.8.3-.9 4.1-1.2 14.2-1.2 12.4 0 14.3.3 18.8 2.4z"/></svg>