<svg version="1.0" xmlns="http://www.w3.org/2000/svg" viewBox="0 0 400 400"><path d="M133.4 120.6c-.7.3-.9 2.3-.7 5.2.5 4.9-.6 8.4-13.2 43.7-2.5 7.1-5 14.1-5.5 15.5-.4 1.4-3.1 9-6 17s-5.6 15.6-6 17c-3.4 10.5-10.7 19.1-18 21-6.1 1.6-13 .6-15.4-2.2-1.8-2.2-1.9-5.5-.4-17.3.3-2-.3-2-23.6-2H20.7l-4 11c-10 28.1-10 37.4.3 45.6 6.8 5.4 11.2 5.9 57 5.9 36.1-.1 42.6-.3 50-1.9 13.2-2.8 23-8.3 31.2-17.6 6.6-7.5 9.6-13.3 15.6-30.5 4.3-12.1 13.7-38.7 23.2-65.5 4.5-12.7 9.2-26.1 10.6-29.9 3-8.5 3.1-13.1.5-14.6-1.9-1-69.3-1.4-71.7-.4zM227.8 120.6c-.3.3-.4 3.1-.1 6.2.5 5.9-.1 8.3-6.5 25.7-8.8 24.1-11.9 32.5-17.3 47.3-3.2 8.9-8.5 23.5-11.8 32.5-13.7 37.5-13.9 38.4-9.5 43.6 1.4 1.7 4.2 3.5 6.2 4.1 2.3.6 22.3 1 52.6 1 51.6 0 60.7-.6 75.3-5 25.9-7.9 47.9-28.9 59.1-56.5 2.8-6.9 13.7-36.9 15.5-43 8.1-26 2.8-44.3-15.6-53.5l-6-3H299c-38.9 0-70.9.3-71.2.6zm96.4 36.1c5.6 2.1 7.7 4 9.9 8.8 3.4 7.5 1.8 19.9-4.6 36-9 22.4-23.6 35.8-42.1 38.5-8.5 1.2-24.4 1.3-24.4.2 0-.5 1.6-5.4 3.6-10.8 8.2-22.6 15.9-43.8 21-57.6 3-8.1 5.4-15.2 5.4-15.8 0-1.8 26.3-1.3 31.2.7z"/></svg>