<svg xmlns="http://www.w3.org/2000/svg" data-name="Layer 1" viewBox="0 0 282.26 266.99"><path fill="#fff" d="M226.39 155.22a55.39 55.39 0 0 0-29.46 8.59V0h-95.89v166.85c0 1.28-.08 2.3-.15 3h-.23s-1.22-1.26-2.37-5.52l-8.56-31.77L0 169.49l7.77 25.26c6.55 21.25 18.52 38.3 35.58 50.66 16.89 12.23 36.67 18.44 58.78 18.44a103.8 103.8 0 0 0 35.66-6.11 87.32 87.32 0 0 0 31.07-19.34 87 87 0 0 0 5.66-6.84 55.83 55.83 0 1 0 51.87-76.38Z"/><path d="M55.11 229.18c13.39 9.71 29.2 14.62 47 14.62a83.58 83.58 0 0 0 28.79-4.9 67.21 67.21 0 0 0 24-14.9 70.87 70.87 0 0 0 16.11-24.41c3.88-9.57 5.85-20.68 5.85-33V20.09h-55.75v146.76c0 7.89-1.73 13.89-5.15 17.82-3.19 3.69-7.59 5.4-13.85 5.4-5.81 0-10.49-1.54-14.34-4.74s-7-8.58-8.9-15.73l-2.62-9.73-51.68 21.27 2.38 7.74c5.26 17.01 14.75 30.56 28.16 40.3Z"/><path fill="var(--color-accent)" d="M226.39 246.89a35.79 35.79 0 1 0-35.79-35.79 35.79 35.79 0 0 0 35.79 35.79Z"/></svg>